; Drill file
; Format: 2.4 (00.0000)
M48
INCH
T01C0.0236
T02C0.0394
T03C0.1181
%
G05
G90
T01
X003750Y-006870
X003000Y-004370
X003500Y-002500
X006000Y-003370
X006250Y-004370
X010000Y-003370
X010000Y-002120
X011630Y000150
X012420Y000150
X011750Y002500
X011750Y005000
X008620Y000500
X011880Y-005850
X012670Y-005850
T02
X004770Y-008030
X004770Y-007030
X006770Y-008030
X007770Y-008030
X008770Y-008030
X008770Y-007030
X014000Y-004250
X014000Y-003250
X016250Y-003250
X016250Y-005250
X014000Y001750
X014000Y002750
X016250Y002500
X016250Y004500
X001000Y002750
X001000Y001750
X001000Y000750
X001000Y-000250
X001000Y-001250
X001000Y-002250
X001000Y-003250
X001000Y-004250
T03
X001250Y-007620
X001250Y006380
X016250Y006380
X016250Y-007620
M30
