%FSLAX34Y34*%
%MOMM*%
%LNCOPPER_TOP*%
G71*
G01*
%ADD10C, 1.50*%
%ADD11C, 2.00*%
%ADD12C, 1.00*%
%ADD13C, 1.60*%
%LPD*%
X254000Y-85600D02*
G54D10*
D03*
X254000Y-53850D02*
G54D10*
D03*
X298450Y63500D02*
G54D10*
D03*
X298450Y127000D02*
G54D10*
D03*
X355600Y69850D02*
G54D11*
D03*
X355600Y44450D02*
G54D11*
D03*
X25400Y69850D02*
G54D11*
D03*
X25400Y44450D02*
G54D11*
D03*
X25400Y19050D02*
G54D11*
D03*
X25400Y-6350D02*
G54D11*
D03*
X25400Y-31750D02*
G54D11*
D03*
X25400Y-57150D02*
G54D11*
D03*
X355600Y-82550D02*
G54D11*
D03*
X355600Y-107950D02*
G54D11*
D03*
X412750Y-133350D02*
G54D11*
D03*
X412750Y114300D02*
G54D11*
D03*
X412750Y63500D02*
G54D11*
D03*
X412750Y-82550D02*
G54D11*
D03*
X222683Y-178684D02*
G54D11*
D03*
X222683Y-204084D02*
G54D11*
D03*
X197283Y-204084D02*
G54D11*
D03*
X171880Y-204080D02*
G54D11*
D03*
X121083Y-204084D02*
G54D11*
D03*
X121083Y-178684D02*
G54D11*
D03*
X25400Y-82550D02*
G54D11*
D03*
X25400Y-107950D02*
G54D11*
D03*
X95250Y-174500D02*
G54D10*
D03*
X158750Y-111000D02*
G54D10*
D03*
X152400Y-85600D02*
G54D10*
D03*
X76200Y-111000D02*
G54D10*
D03*
G54D12*
X76200Y-111000D02*
X152400Y-85600D01*
G54D12*
X95250Y-174500D02*
X158750Y-111000D01*
G54D12*
X298450Y127000D02*
X298450Y63500D01*
G54D12*
X254000Y-85600D02*
X254000Y-53850D01*
X88900Y-63500D02*
G54D10*
D03*
X218892Y12714D02*
G54D10*
D03*
G54D12*
X88900Y-63500D02*
X218892Y12714D01*
X295493Y3934D02*
G54D13*
D03*
X315493Y3934D02*
G54D13*
D03*
X301843Y-148466D02*
G54D13*
D03*
X321843Y-148466D02*
G54D13*
D03*
M02*
