; Drill file
; Format: 2.4 (00.0000)
M48
INCH
T01C0.0236
T02C0.0394
T03C0.1181
%
G05
G90
T01
X003620Y-006120
X002870Y-003620
X003380Y-001750
X005880Y-002620
X006130Y-003620
X009880Y-002620
X009880Y-001370
X011510Y000900
X012300Y000900
X011630Y003250
X010620Y005750
X008490Y001250
X011760Y-005100
X012550Y-005100
T02
X004640Y-007280
X004640Y-006280
X006640Y-007280
X007640Y-007280
X008640Y-007280
X008640Y-006280
X013870Y-003500
X013870Y-002500
X016130Y-002440
X016130Y-004440
X016130Y-000440
X016130Y001560
X016130Y003560
X013870Y003500
X013870Y002500
X013870Y006000
X012880Y006000
X005370Y005250
X005370Y004250
X000870Y003500
X000870Y002500
X000870Y001500
X000870Y000500
X000870Y-000500
X000870Y-001500
X000870Y-002500
X000870Y-003500
T03
X001750Y-006750
X001750Y005750
X016000Y005750
X016000Y-006750
M30
