%FSLAX34Y34*%
%MOMM*%
%LNSOLDERMASK_BOTTOM*%
G71*
G01*
%ADD10C, 1.70*%
%ADD11C, 2.20*%
%ADD12C, 0.20*%
%ADD13R, 0.70X0.70*%
%ADD14R, 1.00X1.63*%
%ADD15R, 1.63X1.00*%
%ADD16R, 1.80X1.80*%
%ADD17R, 1.90X1.60*%
%ADD18R, 1.90X4.20*%
%ADD19C, 1.80*%
%ADD20R, 1.40X0.92*%
%ADD21C, 4.20*%
%LPD*%
X250825Y-66550D02*
G54D10*
D03*
X250825Y-34800D02*
G54D10*
D03*
X295275Y82550D02*
G54D10*
D03*
X269875Y146050D02*
G54D10*
D03*
X352425Y88900D02*
G54D11*
D03*
X352425Y63500D02*
G54D11*
D03*
X22225Y88900D02*
G54D11*
D03*
X22225Y63500D02*
G54D11*
D03*
X22225Y38100D02*
G54D11*
D03*
X22225Y12700D02*
G54D11*
D03*
X22225Y-12700D02*
G54D11*
D03*
X22225Y-38100D02*
G54D11*
D03*
X352425Y-63500D02*
G54D11*
D03*
X352425Y-88900D02*
G54D11*
D03*
X409575Y-112655D02*
G54D11*
D03*
X409575Y90545D02*
G54D11*
D03*
X409575Y-61855D02*
G54D11*
D03*
X219508Y-159634D02*
G54D11*
D03*
X219508Y-185034D02*
G54D11*
D03*
X194108Y-185034D02*
G54D11*
D03*
X168705Y-185030D02*
G54D11*
D03*
X117908Y-185034D02*
G54D11*
D03*
X117908Y-159634D02*
G54D11*
D03*
X22225Y-63500D02*
G54D11*
D03*
X22225Y-88900D02*
G54D11*
D03*
X92075Y-155450D02*
G54D10*
D03*
X155575Y-91950D02*
G54D10*
D03*
X149225Y-66550D02*
G54D10*
D03*
X73025Y-91950D02*
G54D10*
D03*
X85725Y-44450D02*
G54D10*
D03*
X215717Y31764D02*
G54D10*
D03*
G36*
X202175Y26525D02*
X200175Y28525D01*
X189175Y28525D01*
X188175Y27525D01*
X188175Y23525D01*
X189175Y22525D01*
X200175Y22525D01*
X202175Y24525D01*
X202175Y26525D01*
G37*
G54D12*
X202175Y26525D02*
X200175Y28525D01*
X189175Y28525D01*
X188175Y27525D01*
X188175Y23525D01*
X189175Y22525D01*
X200175Y22525D01*
X202175Y24525D01*
X202175Y26525D01*
G36*
X202175Y18525D02*
X200175Y20525D01*
X189175Y20525D01*
X188175Y19525D01*
X188175Y15525D01*
X189175Y14525D01*
X200175Y14525D01*
X202175Y16525D01*
X202175Y18525D01*
G37*
G54D12*
X202175Y18525D02*
X200175Y20525D01*
X189175Y20525D01*
X188175Y19525D01*
X188175Y15525D01*
X189175Y14525D01*
X200175Y14525D01*
X202175Y16525D01*
X202175Y18525D01*
X193675Y25525D02*
G54D13*
D03*
X193675Y17525D02*
G54D13*
D03*
G36*
X202175Y10525D02*
X200175Y12525D01*
X189175Y12525D01*
X188175Y11525D01*
X188175Y7525D01*
X189175Y6525D01*
X200175Y6525D01*
X202175Y8525D01*
X202175Y10525D01*
G37*
G54D12*
X202175Y10525D02*
X200175Y12525D01*
X189175Y12525D01*
X188175Y11525D01*
X188175Y7525D01*
X189175Y6525D01*
X200175Y6525D01*
X202175Y8525D01*
X202175Y10525D01*
G36*
X202175Y2525D02*
X200175Y4525D01*
X189175Y4525D01*
X188175Y3525D01*
X188175Y-475D01*
X189175Y-1475D01*
X200175Y-1475D01*
X202175Y525D01*
X202175Y2525D01*
G37*
G54D12*
X202175Y2525D02*
X200175Y4525D01*
X189175Y4525D01*
X188175Y3525D01*
X188175Y-475D01*
X189175Y-1475D01*
X200175Y-1475D01*
X202175Y525D01*
X202175Y2525D01*
X193675Y9525D02*
G54D13*
D03*
X193675Y1525D02*
G54D13*
D03*
G36*
X202175Y-5475D02*
X200175Y-3475D01*
X189175Y-3475D01*
X188175Y-4475D01*
X188175Y-8475D01*
X189175Y-9475D01*
X200175Y-9475D01*
X202175Y-7475D01*
X202175Y-5475D01*
G37*
G54D12*
X202175Y-5475D02*
X200175Y-3475D01*
X189175Y-3475D01*
X188175Y-4475D01*
X188175Y-8475D01*
X189175Y-9475D01*
X200175Y-9475D01*
X202175Y-7475D01*
X202175Y-5475D01*
G36*
X202175Y-13475D02*
X200175Y-11475D01*
X189175Y-11475D01*
X188175Y-12475D01*
X188175Y-16475D01*
X189175Y-17475D01*
X200175Y-17475D01*
X202175Y-15475D01*
X202175Y-13475D01*
G37*
G54D12*
X202175Y-13475D02*
X200175Y-11475D01*
X189175Y-11475D01*
X188175Y-12475D01*
X188175Y-16475D01*
X189175Y-17475D01*
X200175Y-17475D01*
X202175Y-15475D01*
X202175Y-13475D01*
X193675Y-6475D02*
G54D13*
D03*
X193675Y-14475D02*
G54D13*
D03*
G36*
X202175Y-21475D02*
X200175Y-19475D01*
X189175Y-19475D01*
X188175Y-20475D01*
X188175Y-24475D01*
X189175Y-25475D01*
X200175Y-25475D01*
X202175Y-23475D01*
X202175Y-21475D01*
G37*
G54D12*
X202175Y-21475D02*
X200175Y-19475D01*
X189175Y-19475D01*
X188175Y-20475D01*
X188175Y-24475D01*
X189175Y-25475D01*
X200175Y-25475D01*
X202175Y-23475D01*
X202175Y-21475D01*
G36*
X202175Y-29475D02*
X200175Y-27475D01*
X189175Y-27475D01*
X188175Y-28475D01*
X188175Y-32475D01*
X189175Y-33475D01*
X200175Y-33475D01*
X202175Y-31475D01*
X202175Y-29475D01*
G37*
G54D12*
X202175Y-29475D02*
X200175Y-27475D01*
X189175Y-27475D01*
X188175Y-28475D01*
X188175Y-32475D01*
X189175Y-33475D01*
X200175Y-33475D01*
X202175Y-31475D01*
X202175Y-29475D01*
X193675Y-22475D02*
G54D13*
D03*
X193675Y-30475D02*
G54D13*
D03*
G36*
X122175Y48525D02*
X120175Y46525D01*
X120175Y35525D01*
X121175Y34525D01*
X125175Y34525D01*
X126175Y35525D01*
X126175Y46525D01*
X124175Y48525D01*
X122175Y48525D01*
G37*
G54D12*
X122175Y48525D02*
X120175Y46525D01*
X120175Y35525D01*
X121175Y34525D01*
X125175Y34525D01*
X126175Y35525D01*
X126175Y46525D01*
X124175Y48525D01*
X122175Y48525D01*
G36*
X130175Y48525D02*
X128175Y46525D01*
X128175Y35525D01*
X129175Y34525D01*
X133175Y34525D01*
X134175Y35525D01*
X134175Y46525D01*
X132175Y48525D01*
X130175Y48525D01*
G37*
G54D12*
X130175Y48525D02*
X128175Y46525D01*
X128175Y35525D01*
X129175Y34525D01*
X133175Y34525D01*
X134175Y35525D01*
X134175Y46525D01*
X132175Y48525D01*
X130175Y48525D01*
X123175Y40025D02*
G54D13*
D03*
X131175Y40025D02*
G54D13*
D03*
G36*
X138175Y48525D02*
X136175Y46525D01*
X136175Y35525D01*
X137175Y34525D01*
X141175Y34525D01*
X142175Y35525D01*
X142175Y46525D01*
X140175Y48525D01*
X138175Y48525D01*
G37*
G54D12*
X138175Y48525D02*
X136175Y46525D01*
X136175Y35525D01*
X137175Y34525D01*
X141175Y34525D01*
X142175Y35525D01*
X142175Y46525D01*
X140175Y48525D01*
X138175Y48525D01*
G36*
X146175Y48525D02*
X144175Y46525D01*
X144175Y35525D01*
X145175Y34525D01*
X149175Y34525D01*
X150175Y35525D01*
X150175Y46525D01*
X148175Y48525D01*
X146175Y48525D01*
G37*
G54D12*
X146175Y48525D02*
X144175Y46525D01*
X144175Y35525D01*
X145175Y34525D01*
X149175Y34525D01*
X150175Y35525D01*
X150175Y46525D01*
X148175Y48525D01*
X146175Y48525D01*
X139175Y40025D02*
G54D13*
D03*
X147175Y40025D02*
G54D13*
D03*
G36*
X154175Y48525D02*
X152175Y46525D01*
X152175Y35525D01*
X153175Y34525D01*
X157175Y34525D01*
X158175Y35525D01*
X158175Y46525D01*
X156175Y48525D01*
X154175Y48525D01*
G37*
G54D12*
X154175Y48525D02*
X152175Y46525D01*
X152175Y35525D01*
X153175Y34525D01*
X157175Y34525D01*
X158175Y35525D01*
X158175Y46525D01*
X156175Y48525D01*
X154175Y48525D01*
G36*
X162175Y48525D02*
X160175Y46525D01*
X160175Y35525D01*
X161175Y34525D01*
X165175Y34525D01*
X166175Y35525D01*
X166175Y46525D01*
X164175Y48525D01*
X162175Y48525D01*
G37*
G54D12*
X162175Y48525D02*
X160175Y46525D01*
X160175Y35525D01*
X161175Y34525D01*
X165175Y34525D01*
X166175Y35525D01*
X166175Y46525D01*
X164175Y48525D01*
X162175Y48525D01*
X155175Y40025D02*
G54D13*
D03*
X163175Y40025D02*
G54D13*
D03*
G36*
X170175Y48525D02*
X168175Y46525D01*
X168175Y35525D01*
X169175Y34525D01*
X173175Y34525D01*
X174175Y35525D01*
X174175Y46525D01*
X172175Y48525D01*
X170175Y48525D01*
G37*
G54D12*
X170175Y48525D02*
X168175Y46525D01*
X168175Y35525D01*
X169175Y34525D01*
X173175Y34525D01*
X174175Y35525D01*
X174175Y46525D01*
X172175Y48525D01*
X170175Y48525D01*
G36*
X178175Y48525D02*
X176175Y46525D01*
X176175Y35525D01*
X177175Y34525D01*
X181175Y34525D01*
X182175Y35525D01*
X182175Y46525D01*
X180175Y48525D01*
X178175Y48525D01*
G37*
G54D12*
X178175Y48525D02*
X176175Y46525D01*
X176175Y35525D01*
X177175Y34525D01*
X181175Y34525D01*
X182175Y35525D01*
X182175Y46525D01*
X180175Y48525D01*
X178175Y48525D01*
X171175Y40025D02*
G54D13*
D03*
X179175Y40025D02*
G54D13*
D03*
G36*
X100175Y-31475D02*
X102175Y-33475D01*
X113175Y-33475D01*
X114175Y-32475D01*
X114175Y-28475D01*
X113175Y-27475D01*
X102175Y-27475D01*
X100175Y-29475D01*
X100175Y-31475D01*
G37*
G54D12*
X100175Y-31475D02*
X102175Y-33475D01*
X113175Y-33475D01*
X114175Y-32475D01*
X114175Y-28475D01*
X113175Y-27475D01*
X102175Y-27475D01*
X100175Y-29475D01*
X100175Y-31475D01*
G36*
X100175Y-23475D02*
X102175Y-25475D01*
X113175Y-25475D01*
X114175Y-24475D01*
X114175Y-20475D01*
X113175Y-19475D01*
X102175Y-19475D01*
X100175Y-21475D01*
X100175Y-23475D01*
G37*
G54D12*
X100175Y-23475D02*
X102175Y-25475D01*
X113175Y-25475D01*
X114175Y-24475D01*
X114175Y-20475D01*
X113175Y-19475D01*
X102175Y-19475D01*
X100175Y-21475D01*
X100175Y-23475D01*
X108675Y-30475D02*
G54D13*
D03*
X108675Y-22475D02*
G54D13*
D03*
G36*
X100175Y-15475D02*
X102175Y-17475D01*
X113175Y-17475D01*
X114175Y-16475D01*
X114175Y-12475D01*
X113175Y-11475D01*
X102175Y-11475D01*
X100175Y-13475D01*
X100175Y-15475D01*
G37*
G54D12*
X100175Y-15475D02*
X102175Y-17475D01*
X113175Y-17475D01*
X114175Y-16475D01*
X114175Y-12475D01*
X113175Y-11475D01*
X102175Y-11475D01*
X100175Y-13475D01*
X100175Y-15475D01*
G36*
X100175Y-7475D02*
X102175Y-9475D01*
X113175Y-9475D01*
X114175Y-8475D01*
X114175Y-4475D01*
X113175Y-3475D01*
X102175Y-3475D01*
X100175Y-5475D01*
X100175Y-7475D01*
G37*
G54D12*
X100175Y-7475D02*
X102175Y-9475D01*
X113175Y-9475D01*
X114175Y-8475D01*
X114175Y-4475D01*
X113175Y-3475D01*
X102175Y-3475D01*
X100175Y-5475D01*
X100175Y-7475D01*
X108675Y-14475D02*
G54D13*
D03*
X108675Y-6475D02*
G54D13*
D03*
G36*
X100175Y525D02*
X102175Y-1475D01*
X113175Y-1475D01*
X114175Y-475D01*
X114175Y3525D01*
X113175Y4525D01*
X102175Y4525D01*
X100175Y2525D01*
X100175Y525D01*
G37*
G54D12*
X100175Y525D02*
X102175Y-1475D01*
X113175Y-1475D01*
X114175Y-475D01*
X114175Y3525D01*
X113175Y4525D01*
X102175Y4525D01*
X100175Y2525D01*
X100175Y525D01*
G36*
X100175Y8525D02*
X102175Y6525D01*
X113175Y6525D01*
X114175Y7525D01*
X114175Y11525D01*
X113175Y12525D01*
X102175Y12525D01*
X100175Y10525D01*
X100175Y8525D01*
G37*
G54D12*
X100175Y8525D02*
X102175Y6525D01*
X113175Y6525D01*
X114175Y7525D01*
X114175Y11525D01*
X113175Y12525D01*
X102175Y12525D01*
X100175Y10525D01*
X100175Y8525D01*
X108675Y1525D02*
G54D13*
D03*
X108675Y9525D02*
G54D13*
D03*
G36*
X100175Y16525D02*
X102175Y14525D01*
X113175Y14525D01*
X114175Y15525D01*
X114175Y19525D01*
X113175Y20525D01*
X102175Y20525D01*
X100175Y18525D01*
X100175Y16525D01*
G37*
G54D12*
X100175Y16525D02*
X102175Y14525D01*
X113175Y14525D01*
X114175Y15525D01*
X114175Y19525D01*
X113175Y20525D01*
X102175Y20525D01*
X100175Y18525D01*
X100175Y16525D01*
G36*
X100175Y24525D02*
X102175Y22525D01*
X113175Y22525D01*
X114175Y23525D01*
X114175Y27525D01*
X113175Y28525D01*
X102175Y28525D01*
X100175Y26525D01*
X100175Y24525D01*
G37*
G54D12*
X100175Y24525D02*
X102175Y22525D01*
X113175Y22525D01*
X114175Y23525D01*
X114175Y27525D01*
X113175Y28525D01*
X102175Y28525D01*
X100175Y26525D01*
X100175Y24525D01*
X108675Y17525D02*
G54D13*
D03*
X108675Y25525D02*
G54D13*
D03*
G36*
X180175Y-53475D02*
X182175Y-51475D01*
X182175Y-40475D01*
X181175Y-39475D01*
X177175Y-39475D01*
X176175Y-40475D01*
X176175Y-51475D01*
X178175Y-53475D01*
X180175Y-53475D01*
G37*
G54D12*
X180175Y-53475D02*
X182175Y-51475D01*
X182175Y-40475D01*
X181175Y-39475D01*
X177175Y-39475D01*
X176175Y-40475D01*
X176175Y-51475D01*
X178175Y-53475D01*
X180175Y-53475D01*
G36*
X172175Y-53475D02*
X174175Y-51475D01*
X174175Y-40475D01*
X173175Y-39475D01*
X169175Y-39475D01*
X168175Y-40475D01*
X168175Y-51475D01*
X170175Y-53475D01*
X172175Y-53475D01*
G37*
G54D12*
X172175Y-53475D02*
X174175Y-51475D01*
X174175Y-40475D01*
X173175Y-39475D01*
X169175Y-39475D01*
X168175Y-40475D01*
X168175Y-51475D01*
X170175Y-53475D01*
X172175Y-53475D01*
X179175Y-44975D02*
G54D13*
D03*
X171175Y-44975D02*
G54D13*
D03*
G36*
X164175Y-53475D02*
X166175Y-51475D01*
X166175Y-40475D01*
X165175Y-39475D01*
X161175Y-39475D01*
X160175Y-40475D01*
X160175Y-51475D01*
X162175Y-53475D01*
X164175Y-53475D01*
G37*
G54D12*
X164175Y-53475D02*
X166175Y-51475D01*
X166175Y-40475D01*
X165175Y-39475D01*
X161175Y-39475D01*
X160175Y-40475D01*
X160175Y-51475D01*
X162175Y-53475D01*
X164175Y-53475D01*
G36*
X156175Y-53475D02*
X158175Y-51475D01*
X158175Y-40475D01*
X157175Y-39475D01*
X153175Y-39475D01*
X152175Y-40475D01*
X152175Y-51475D01*
X154175Y-53475D01*
X156175Y-53475D01*
G37*
G54D12*
X156175Y-53475D02*
X158175Y-51475D01*
X158175Y-40475D01*
X157175Y-39475D01*
X153175Y-39475D01*
X152175Y-40475D01*
X152175Y-51475D01*
X154175Y-53475D01*
X156175Y-53475D01*
X163175Y-44975D02*
G54D13*
D03*
X155175Y-44975D02*
G54D13*
D03*
G36*
X148175Y-53475D02*
X150175Y-51475D01*
X150175Y-40475D01*
X149175Y-39475D01*
X145175Y-39475D01*
X144175Y-40475D01*
X144175Y-51475D01*
X146175Y-53475D01*
X148175Y-53475D01*
G37*
G54D12*
X148175Y-53475D02*
X150175Y-51475D01*
X150175Y-40475D01*
X149175Y-39475D01*
X145175Y-39475D01*
X144175Y-40475D01*
X144175Y-51475D01*
X146175Y-53475D01*
X148175Y-53475D01*
G36*
X140175Y-53475D02*
X142175Y-51475D01*
X142175Y-40475D01*
X141175Y-39475D01*
X137175Y-39475D01*
X136175Y-40475D01*
X136175Y-51475D01*
X138175Y-53475D01*
X140175Y-53475D01*
G37*
G54D12*
X140175Y-53475D02*
X142175Y-51475D01*
X142175Y-40475D01*
X141175Y-39475D01*
X137175Y-39475D01*
X136175Y-40475D01*
X136175Y-51475D01*
X138175Y-53475D01*
X140175Y-53475D01*
X147175Y-44975D02*
G54D13*
D03*
X139175Y-44975D02*
G54D13*
D03*
G36*
X132175Y-53475D02*
X134175Y-51475D01*
X134175Y-40475D01*
X133175Y-39475D01*
X129175Y-39475D01*
X128175Y-40475D01*
X128175Y-51475D01*
X130175Y-53475D01*
X132175Y-53475D01*
G37*
G54D12*
X132175Y-53475D02*
X134175Y-51475D01*
X134175Y-40475D01*
X133175Y-39475D01*
X129175Y-39475D01*
X128175Y-40475D01*
X128175Y-51475D01*
X130175Y-53475D01*
X132175Y-53475D01*
G36*
X124175Y-53475D02*
X126175Y-51475D01*
X126175Y-40475D01*
X125175Y-39475D01*
X121175Y-39475D01*
X120175Y-40475D01*
X120175Y-51475D01*
X122175Y-53475D01*
X124175Y-53475D01*
G37*
G54D12*
X124175Y-53475D02*
X126175Y-51475D01*
X126175Y-40475D01*
X125175Y-39475D01*
X121175Y-39475D01*
X120175Y-40475D01*
X120175Y-51475D01*
X122175Y-53475D01*
X124175Y-53475D01*
X131175Y-44975D02*
G54D13*
D03*
X123175Y-44975D02*
G54D13*
D03*
X220835Y3158D02*
G54D14*
D03*
X242135Y3192D02*
G54D14*
D03*
X220454Y-16360D02*
G54D14*
D03*
X241754Y-16326D02*
G54D14*
D03*
X67905Y-6595D02*
G54D14*
D03*
X89205Y-6561D02*
G54D14*
D03*
X68117Y-22563D02*
G54D14*
D03*
X89417Y-22530D02*
G54D14*
D03*
X292160Y65379D02*
G54D14*
D03*
X313460Y65412D02*
G54D14*
D03*
X267318Y-91328D02*
G54D15*
D03*
X267351Y-112628D02*
G54D15*
D03*
G36*
X272902Y-19727D02*
X265831Y-12656D01*
X277357Y-1130D01*
X284428Y-8201D01*
X272902Y-19727D01*
G37*
G36*
X257817Y-4690D02*
X250746Y2381D01*
X262272Y13907D01*
X269343Y6836D01*
X257817Y-4690D01*
G37*
X166214Y135131D02*
G54D16*
D03*
X166214Y107131D02*
G54D16*
D03*
X197964Y135131D02*
G54D16*
D03*
X197964Y107131D02*
G54D16*
D03*
X273179Y-73778D02*
G54D17*
D03*
X273179Y-50778D02*
G54D17*
D03*
X273179Y-27778D02*
G54D17*
D03*
X338179Y-50778D02*
G54D18*
D03*
X292318Y22984D02*
G54D19*
D03*
X312318Y22984D02*
G54D19*
D03*
X298668Y-129416D02*
G54D19*
D03*
X318668Y-129416D02*
G54D19*
D03*
X217376Y66800D02*
G54D20*
D03*
X276276Y66800D02*
G54D20*
D03*
X217376Y79500D02*
G54D20*
D03*
X276276Y79500D02*
G54D20*
D03*
X217376Y92200D02*
G54D20*
D03*
X276276Y92200D02*
G54D20*
D03*
X217376Y104900D02*
G54D20*
D03*
X276276Y104900D02*
G54D20*
D03*
X305514Y121013D02*
G54D16*
D03*
X305514Y149013D02*
G54D16*
D03*
X352425Y152400D02*
G54D11*
D03*
X327025Y152400D02*
G54D11*
D03*
X409575Y39745D02*
G54D11*
D03*
X44450Y146050D02*
G54D21*
D03*
X44450Y-171450D02*
G54D21*
D03*
X406400Y-171450D02*
G54D21*
D03*
X409575Y-11055D02*
G54D11*
D03*
X406400Y146050D02*
G54D21*
D03*
X136525Y107950D02*
G54D11*
D03*
X136525Y133350D02*
G54D11*
D03*
M02*
