%FSLAX34Y34*%
%MOMM*%
%LNSILK_TOP*%
G71*
G01*
%ADD10C, 0.18*%
%ADD11C, 0.10*%
%LPD*%
G54D10*
X309002Y38884D02*
X317535Y38884D01*
G54D10*
X313268Y35328D02*
X313268Y42440D01*
G54D11*
G75*
G01X327318Y22984D02*
G03X327318Y22984I-25000J0D01*
G01*
G54D10*
X315352Y-113516D02*
X323885Y-113516D01*
G54D10*
X319618Y-117072D02*
X319618Y-109960D01*
G54D11*
G75*
G01X333668Y-129416D02*
G03X333668Y-129416I-25000J0D01*
G01*
G54D10*
X300620Y170664D02*
X293153Y170664D01*
X293153Y184886D01*
X300620Y184886D01*
G54D10*
X293153Y177775D02*
X300620Y177775D01*
G54D10*
X304531Y170664D02*
X304531Y178664D01*
G54D10*
X304531Y176886D02*
X305598Y178130D01*
X307731Y178664D01*
X309864Y178130D01*
X310931Y176886D01*
X310931Y170664D01*
G54D10*
X321242Y170664D02*
X321242Y184886D01*
G54D10*
X321242Y176352D02*
X320175Y178130D01*
X318042Y178664D01*
X315909Y178130D01*
X314842Y176352D01*
X314842Y172797D01*
X315909Y171019D01*
X318042Y170664D01*
X320175Y171019D01*
X321242Y172797D01*
G54D10*
X325153Y178664D02*
X325153Y167108D01*
G54D10*
X325153Y173330D02*
X326220Y171019D01*
X328353Y170664D01*
X330486Y171019D01*
X331553Y172797D01*
X331553Y176352D01*
X330486Y178130D01*
X328353Y178664D01*
X326220Y178130D01*
X325153Y175997D01*
G54D10*
X341864Y172797D02*
X341864Y176352D01*
X340797Y178130D01*
X338664Y178664D01*
X336531Y178130D01*
X335464Y176352D01*
X335464Y172797D01*
X336531Y171019D01*
X338664Y170664D01*
X340797Y171019D01*
X341864Y172797D01*
G54D10*
X345775Y170664D02*
X345775Y178664D01*
G54D10*
X345775Y181330D02*
X345775Y181330D01*
G54D10*
X349686Y170664D02*
X349686Y178664D01*
G54D10*
X349686Y176886D02*
X350753Y178130D01*
X352886Y178664D01*
X355019Y178130D01*
X356086Y176886D01*
X356086Y170664D01*
G54D10*
X362130Y184886D02*
X362130Y171552D01*
X363197Y170664D01*
X364264Y171019D01*
G54D10*
X359997Y178664D02*
X364264Y178664D01*
G54D10*
X240632Y-188220D02*
X249165Y-188220D01*
G54D10*
X244899Y-188220D02*
X244899Y-173997D01*
G54D10*
X240632Y-173997D02*
X249165Y-173997D01*
G54D10*
X253076Y-185553D02*
X254143Y-187331D01*
X256276Y-188220D01*
X258409Y-188220D01*
X260543Y-187331D01*
X261609Y-185553D01*
X261609Y-183775D01*
X260543Y-181997D01*
X258409Y-181108D01*
X256276Y-181108D01*
X254143Y-180220D01*
X253076Y-178442D01*
X253076Y-176664D01*
X254143Y-174886D01*
X256276Y-173997D01*
X258409Y-173997D01*
X260543Y-174886D01*
X261609Y-176664D01*
G54D10*
X265520Y-188220D02*
X265520Y-173997D01*
X270853Y-173997D01*
X272987Y-174886D01*
X274053Y-176664D01*
X274053Y-178442D01*
X272987Y-180220D01*
X270853Y-181108D01*
X265520Y-181108D01*
G54D11*
G75*
G01X106325Y-196850D02*
G03X106325Y-196850I-1500J0D01*
G01*
G36*
G75*
G01X106325Y-196850D02*
G03X106325Y-196850I-1500J0D01*
G01*
G37*
X106325Y-196850D01*
G54D10*
X437416Y81656D02*
X437416Y95878D01*
X442750Y95878D01*
X444883Y94989D01*
X445950Y93211D01*
X445950Y91433D01*
X444883Y89656D01*
X442750Y88767D01*
X444883Y87878D01*
X445950Y86100D01*
X445950Y84322D01*
X444883Y82544D01*
X442750Y81656D01*
X437416Y81656D01*
G54D10*
X437416Y88767D02*
X442750Y88767D01*
G54D10*
X439484Y30855D02*
X444817Y45078D01*
X450150Y30855D01*
G54D10*
X441617Y36189D02*
X448017Y36189D01*
G54D10*
X443750Y-12833D02*
X448017Y-12833D01*
X448017Y-17278D01*
X446950Y-19056D01*
X444817Y-19945D01*
X442684Y-19945D01*
X440550Y-19056D01*
X439484Y-17278D01*
X439484Y-8389D01*
X440550Y-6611D01*
X442684Y-5722D01*
X444817Y-5722D01*
X446950Y-6611D01*
X448017Y-8389D01*
G54D10*
X439484Y-64467D02*
X448017Y-64467D01*
G54D10*
X443750Y-60911D02*
X443750Y-68022D01*
G54D10*
X443750Y-114433D02*
X448017Y-114433D01*
X448017Y-118878D01*
X446950Y-120656D01*
X444817Y-121544D01*
X442684Y-121544D01*
X440550Y-120656D01*
X439484Y-118878D01*
X439484Y-109989D01*
X440550Y-108211D01*
X442684Y-107322D01*
X444817Y-107322D01*
X446950Y-108211D01*
X448017Y-109989D01*
G54D10*
X43257Y-87259D02*
X48590Y-81926D01*
X48590Y-96148D01*
G54D10*
X52501Y-81926D02*
X61034Y-81926D01*
X59968Y-83704D01*
X57834Y-86370D01*
X55701Y-89926D01*
X54634Y-92592D01*
X54634Y-96148D01*
G54D10*
X43148Y-61856D02*
X48482Y-56522D01*
X48482Y-70744D01*
G54D10*
X60926Y-56522D02*
X52392Y-56522D01*
X52392Y-62744D01*
X53459Y-62744D01*
X55592Y-61856D01*
X57726Y-61856D01*
X59859Y-62744D01*
X60926Y-64522D01*
X60926Y-68078D01*
X59859Y-69856D01*
X57726Y-70744D01*
X55592Y-70744D01*
X53459Y-69856D01*
X52392Y-68078D01*
G54D10*
X48611Y-45344D02*
X40078Y-45344D01*
X40078Y-44456D01*
X41145Y-42678D01*
X47545Y-37344D01*
X48611Y-35567D01*
X48611Y-33789D01*
X47545Y-32011D01*
X45411Y-31122D01*
X43278Y-31122D01*
X41145Y-32011D01*
X40078Y-33789D01*
G54D10*
X52522Y-33789D02*
X53589Y-32011D01*
X55722Y-31122D01*
X57855Y-31122D01*
X59989Y-32011D01*
X61055Y-33789D01*
X61055Y-35567D01*
X59989Y-37344D01*
X57855Y-38233D01*
X59989Y-39122D01*
X61055Y-40900D01*
X61055Y-42678D01*
X59989Y-44456D01*
X57855Y-45344D01*
X55722Y-45344D01*
X53589Y-44456D01*
X52522Y-42678D01*
G54D10*
X48727Y-19944D02*
X40194Y-19944D01*
X40194Y-19056D01*
X41260Y-17278D01*
X47660Y-11944D01*
X48727Y-10167D01*
X48727Y-8389D01*
X47660Y-6611D01*
X45527Y-5722D01*
X43394Y-5722D01*
X41260Y-6611D01*
X40194Y-8389D01*
G54D10*
X59038Y-19944D02*
X59038Y-5722D01*
X52638Y-14611D01*
X52638Y-16389D01*
X61171Y-16389D01*
G54D10*
X48611Y5456D02*
X40078Y5456D01*
X40078Y6344D01*
X41145Y8122D01*
X47545Y13456D01*
X48611Y15233D01*
X48611Y17011D01*
X47545Y18789D01*
X45411Y19678D01*
X43278Y19678D01*
X41145Y18789D01*
X40078Y17011D01*
G54D10*
X61055Y19678D02*
X52522Y19678D01*
X52522Y13456D01*
X53589Y13456D01*
X55722Y14344D01*
X57855Y14344D01*
X59989Y13456D01*
X61055Y11678D01*
X61055Y8122D01*
X59989Y6344D01*
X57855Y5456D01*
X55722Y5456D01*
X53589Y6344D01*
X52522Y8122D01*
G54D10*
X48611Y30856D02*
X40078Y30856D01*
X40078Y31744D01*
X41145Y33522D01*
X47545Y38856D01*
X48611Y40633D01*
X48611Y42411D01*
X47545Y44189D01*
X45411Y45078D01*
X43278Y45078D01*
X41145Y44189D01*
X40078Y42411D01*
G54D10*
X61055Y42411D02*
X59989Y44189D01*
X57855Y45078D01*
X55722Y45078D01*
X53589Y44189D01*
X52522Y42411D01*
X52522Y37967D01*
X52522Y37078D01*
X55722Y38856D01*
X57855Y38856D01*
X59989Y37967D01*
X61055Y36189D01*
X61055Y33522D01*
X59989Y31744D01*
X57855Y30856D01*
X55722Y30856D01*
X53589Y31744D01*
X52522Y33522D01*
X52522Y37967D01*
G54D10*
X48720Y56256D02*
X40186Y56256D01*
X40186Y57144D01*
X41253Y58922D01*
X47653Y64256D01*
X48720Y66033D01*
X48720Y67811D01*
X47653Y69589D01*
X45520Y70478D01*
X43386Y70478D01*
X41253Y69589D01*
X40186Y67811D01*
G54D10*
X52630Y70478D02*
X61164Y70478D01*
X60097Y68700D01*
X57964Y66033D01*
X55830Y62478D01*
X54764Y59811D01*
X54764Y56256D01*
G54D10*
X48611Y81656D02*
X40078Y81656D01*
X40078Y82544D01*
X41145Y84322D01*
X47545Y89656D01*
X48611Y91433D01*
X48611Y93211D01*
X47545Y94989D01*
X45411Y95878D01*
X43278Y95878D01*
X41145Y94989D01*
X40078Y93211D01*
G54D10*
X57855Y88767D02*
X55722Y88767D01*
X53589Y89656D01*
X52522Y91433D01*
X52522Y93211D01*
X53589Y94989D01*
X55722Y95878D01*
X57855Y95878D01*
X59989Y94989D01*
X61055Y93211D01*
X61055Y91433D01*
X59989Y89656D01*
X57855Y88767D01*
X59989Y87878D01*
X61055Y86100D01*
X61055Y84322D01*
X59989Y82544D01*
X57855Y81656D01*
X55722Y81656D01*
X53589Y82544D01*
X52522Y84322D01*
X52522Y86100D01*
X53589Y87878D01*
X55722Y88767D01*
G54D10*
X361200Y114167D02*
X365467Y114167D01*
X365467Y109722D01*
X364400Y107944D01*
X362267Y107056D01*
X360134Y107056D01*
X358000Y107944D01*
X356934Y109722D01*
X356934Y118611D01*
X358000Y120389D01*
X360134Y121278D01*
X362267Y121278D01*
X364400Y120389D01*
X365467Y118611D01*
G54D10*
X357462Y-42297D02*
X365996Y-42297D01*
G54D10*
X361729Y-38742D02*
X361729Y-45853D01*
G54D10*
X378440Y-34297D02*
X369906Y-34297D01*
X369906Y-40520D01*
X370973Y-40520D01*
X373106Y-39631D01*
X375240Y-39631D01*
X377373Y-40520D01*
X378440Y-42297D01*
X378440Y-45853D01*
X377373Y-47631D01*
X375240Y-48520D01*
X373106Y-48520D01*
X370973Y-47631D01*
X369906Y-45853D01*
G54D10*
X105736Y106709D02*
X107514Y109909D01*
X109292Y110976D01*
X112847Y110976D01*
G54D10*
X112847Y102442D02*
X98625Y102442D01*
X98625Y107776D01*
X99514Y109909D01*
X101292Y110976D01*
X103070Y110976D01*
X104847Y109909D01*
X105736Y107776D01*
X105736Y102442D01*
G54D10*
X110181Y114886D02*
X111959Y115953D01*
X112847Y118086D01*
X112847Y120220D01*
X111959Y122353D01*
X110181Y123420D01*
X108403Y123420D01*
X106625Y122353D01*
X105736Y120220D01*
X105736Y118086D01*
X104847Y115953D01*
X103070Y114886D01*
X101292Y114886D01*
X99514Y115953D01*
X98625Y118086D01*
X98625Y120220D01*
X99514Y122353D01*
X101292Y123420D01*
G54D10*
X112847Y131597D02*
X98625Y131597D01*
G54D10*
X98625Y127330D02*
X98625Y135864D01*
G54D10*
X112847Y143898D02*
X98625Y143898D01*
G54D10*
X110714Y154209D02*
X107159Y154209D01*
X105381Y153143D01*
X104847Y151009D01*
X105381Y148876D01*
X107159Y147809D01*
X110714Y147809D01*
X112492Y148876D01*
X112847Y151009D01*
X112492Y153143D01*
X110714Y154209D01*
G54D10*
X105381Y163454D02*
X104847Y161320D01*
X105381Y159187D01*
X107159Y158120D01*
X110714Y158120D01*
X112492Y159187D01*
X112847Y161320D01*
X112492Y163454D01*
G54D10*
X112847Y167364D02*
X98625Y167364D01*
G54D10*
X107514Y170564D02*
X112847Y173764D01*
G54D10*
X109292Y167364D02*
X104847Y173764D01*
G54D10*
X346946Y-1403D02*
X345879Y-3181D01*
X343746Y-4070D01*
X341612Y-4070D01*
X339479Y-3181D01*
X338412Y-1403D01*
X338412Y7486D01*
X339479Y9264D01*
X341612Y10153D01*
X343746Y10153D01*
X345879Y9264D01*
X346946Y7486D01*
G54D10*
X356190Y3042D02*
X354056Y3042D01*
X351923Y3930D01*
X350856Y5708D01*
X350856Y7486D01*
X351923Y9264D01*
X354056Y10153D01*
X356190Y10153D01*
X358323Y9264D01*
X359390Y7486D01*
X359390Y5708D01*
X358323Y3930D01*
X356190Y3042D01*
X358323Y2153D01*
X359390Y375D01*
X359390Y-1403D01*
X358323Y-3181D01*
X356190Y-4070D01*
X354056Y-4070D01*
X351923Y-3181D01*
X350856Y-1403D01*
X350856Y375D01*
X351923Y2153D01*
X354056Y3042D01*
G54D10*
X346946Y-160153D02*
X345879Y-161931D01*
X343746Y-162820D01*
X341612Y-162820D01*
X339479Y-161931D01*
X338412Y-160153D01*
X338412Y-151264D01*
X339479Y-149486D01*
X341612Y-148597D01*
X343746Y-148597D01*
X345879Y-149486D01*
X346946Y-151264D01*
G54D10*
X350856Y-160153D02*
X351923Y-161931D01*
X354056Y-162820D01*
X356190Y-162820D01*
X358323Y-161931D01*
X359390Y-160153D01*
X359390Y-155708D01*
X359390Y-154820D01*
X356190Y-156597D01*
X354056Y-156597D01*
X351923Y-155708D01*
X350856Y-153931D01*
X350856Y-151264D01*
X351923Y-149486D01*
X354056Y-148597D01*
X356190Y-148597D01*
X358323Y-149486D01*
X359390Y-151264D01*
X359390Y-155708D01*
M02*
