%FSLAX34Y34*%
%MOMM*%
%LNCOPPER_BOTTOM*%
G71*
G01*
%ADD10C, 0.40*%
%ADD11C, 0.70*%
%ADD12C, 1.50*%
%ADD13C, 2.00*%
%ADD14C, 0.00*%
%ADD15R, 0.50X0.50*%
%ADD16R, 0.80X1.43*%
%ADD17R, 1.43X0.80*%
%ADD18R, 1.60X1.60*%
%ADD19R, 1.70X1.40*%
%ADD20R, 1.70X4.00*%
%ADD21C, 1.60*%
%ADD22R, 1.20X0.72*%
%ADD23C, 4.00*%
%LPD*%
G54D10*
X193675Y9525D02*
X181100Y9525D01*
X180975Y9650D01*
X174625Y3300D01*
X174625Y-213D01*
X180743Y-6330D01*
X193530Y-6330D01*
X193675Y-6475D01*
G54D10*
X193675Y1525D02*
X214174Y1525D01*
X221804Y5981D01*
G54D10*
X193675Y-14475D02*
X213685Y-14475D01*
X221804Y-19419D01*
G54D10*
X241790Y2780D02*
X241790Y-16270D01*
G54D11*
X273179Y-27778D02*
X273179Y-14256D01*
X278579Y-8856D01*
X302725Y-8856D01*
X312318Y737D01*
X312318Y22984D01*
X312809Y23475D01*
G54D10*
X292809Y23475D02*
X280786Y23475D01*
X263541Y6230D01*
G54D11*
X273179Y-50778D02*
X338179Y-50778D01*
G54D10*
X299159Y-122575D02*
X299159Y-100404D01*
X290093Y-91338D01*
X272002Y-91338D01*
X271077Y-92263D01*
G54D11*
X319159Y-122575D02*
X319159Y-135297D01*
X309143Y-145313D01*
X290093Y-145313D01*
X271043Y-126263D01*
X271043Y-113563D01*
G54D11*
X319159Y-122575D02*
X319159Y-52747D01*
X319141Y-50858D01*
G54D10*
X271077Y-92263D02*
X271077Y-75880D01*
X273179Y-73778D01*
G54D11*
X273179Y-50778D02*
X238544Y-50778D01*
X220470Y-33939D01*
X220490Y2813D01*
G54D11*
X273179Y-27778D02*
X314997Y-27778D01*
X333375Y-9400D01*
X358775Y-9400D01*
G54D10*
X263541Y6230D02*
X245240Y6230D01*
X241790Y2780D01*
G36*
X257175Y-60200D02*
X231775Y-60200D01*
X212725Y-41150D01*
X193675Y-41150D01*
X193675Y-85600D01*
X257175Y-85600D01*
X257175Y-60200D01*
G37*
G54D10*
X257175Y-60200D02*
X231775Y-60200D01*
X212725Y-41150D01*
X193675Y-41150D01*
X193675Y-85600D01*
X257175Y-85600D01*
X257175Y-60200D01*
G36*
X271077Y-92263D02*
X193988Y-92263D01*
X193675Y-91950D01*
X193675Y-85600D01*
X238125Y-85600D01*
X257175Y-66550D01*
X282575Y-66550D01*
X282575Y-91950D01*
X271390Y-91950D01*
X271077Y-92263D01*
G37*
G54D10*
X271077Y-92263D02*
X193988Y-92263D01*
X193675Y-91950D01*
X193675Y-85600D01*
X238125Y-85600D01*
X257175Y-66550D01*
X282575Y-66550D01*
X282575Y-91950D01*
X271390Y-91950D01*
X271077Y-92263D01*
G36*
X257175Y-41150D02*
X244475Y-41150D01*
X238125Y-34800D01*
X238125Y16000D01*
X244475Y22350D01*
X257509Y22350D01*
X268585Y11274D01*
X258473Y1162D01*
X258473Y-39852D01*
X257175Y-41150D01*
G37*
G54D10*
X257175Y-41150D02*
X244475Y-41150D01*
X238125Y-34800D01*
X238125Y16000D01*
X244475Y22350D01*
X257509Y22350D01*
X268585Y11274D01*
X258473Y1162D01*
X258473Y-39852D01*
X257175Y-41150D01*
X250825Y-66550D02*
G54D12*
D03*
X250825Y-34800D02*
G54D12*
D03*
G54D10*
X292160Y65379D02*
X277597Y65379D01*
X276226Y66750D01*
G36*
X257509Y22350D02*
X263525Y22350D01*
X288925Y47750D01*
X304800Y47750D01*
X311150Y54100D01*
X311150Y63035D01*
X313460Y65345D01*
X318659Y65345D01*
X322712Y61293D01*
X322712Y42794D01*
X318422Y38504D01*
X307839Y38504D01*
X292809Y23475D01*
X280786Y23475D01*
X268585Y11274D01*
X267369Y11274D01*
X258905Y19738D01*
X260913Y19738D01*
X263525Y22350D01*
X257509Y22350D01*
G37*
G54D10*
X257509Y22350D02*
X263525Y22350D01*
X288925Y47750D01*
X304800Y47750D01*
X311150Y54100D01*
X311150Y63035D01*
X313460Y65345D01*
X318659Y65345D01*
X322712Y61293D01*
X322712Y42794D01*
X318422Y38504D01*
X307839Y38504D01*
X292809Y23475D01*
X280786Y23475D01*
X268585Y11274D01*
X267369Y11274D01*
X258905Y19738D01*
X260913Y19738D01*
X263525Y22350D01*
X257509Y22350D01*
G36*
X282575Y-66550D02*
X295275Y-66550D01*
X307975Y-79250D01*
X307975Y-113759D01*
X299159Y-122575D01*
X294150Y-122575D01*
X282575Y-111000D01*
X282575Y-96628D01*
X278210Y-92263D01*
X278210Y-70915D01*
X282575Y-66550D01*
G37*
G54D10*
X282575Y-66550D02*
X295275Y-66550D01*
X307975Y-79250D01*
X307975Y-113759D01*
X299159Y-122575D01*
X294150Y-122575D01*
X282575Y-111000D01*
X282575Y-96628D01*
X278210Y-92263D01*
X278210Y-70915D01*
X282575Y-66550D01*
G54D10*
X276226Y92150D02*
X266750Y92150D01*
X260350Y98550D01*
X260350Y117600D01*
X266700Y123950D01*
X346075Y123950D01*
G54D10*
X276226Y79450D02*
X266750Y79450D01*
X250825Y95375D01*
X250825Y120775D01*
X263525Y133475D01*
X346075Y133475D01*
G54D10*
X163175Y40025D02*
X163175Y55350D01*
X174625Y66800D01*
X217276Y66800D01*
X217326Y66750D01*
G54D10*
X179175Y40025D02*
X179600Y40025D01*
X187530Y46307D01*
X247320Y46307D01*
X253979Y53783D01*
X254000Y80604D01*
X242764Y91835D01*
X242776Y114425D01*
X236376Y120725D01*
G54D10*
X217326Y79450D02*
X217326Y92150D01*
G54D10*
X171175Y40025D02*
X171175Y50650D01*
X174625Y54100D01*
X231775Y54100D01*
X238125Y60450D01*
X238125Y85850D01*
X234950Y89025D01*
X234950Y101725D01*
X231775Y104900D01*
X217376Y104900D01*
X217326Y104850D01*
G54D10*
X236376Y120725D02*
X184100Y120725D01*
X180975Y117600D01*
X180975Y85850D01*
X187325Y79500D01*
X217276Y79500D01*
X217326Y79450D01*
G54D10*
X197964Y107131D02*
X204144Y107131D01*
X206375Y104900D01*
X217276Y104900D01*
X217326Y104850D01*
G54D10*
X155175Y40025D02*
X155175Y56875D01*
X165100Y66800D01*
X165100Y106017D01*
X166214Y107131D01*
G54D10*
X197964Y135131D02*
X166214Y135131D01*
G54D10*
X195943Y-46675D02*
X190375Y-41150D01*
X180975Y-31750D01*
X180975Y-6563D01*
X180743Y-6330D01*
G54D11*
X292160Y65379D02*
X292160Y63560D01*
X260350Y31750D01*
X228826Y31750D01*
X220835Y23759D01*
X220835Y3158D01*
X220490Y2813D01*
X295275Y82550D02*
G54D12*
D03*
X269875Y146050D02*
G54D12*
D03*
G54D11*
X292160Y65379D02*
X292160Y79435D01*
X295275Y82550D01*
G36*
X311150Y63035D02*
X311150Y92075D01*
X307975Y95250D01*
X288925Y95250D01*
X282575Y101600D01*
X282575Y107950D01*
X288925Y107950D01*
X299585Y108025D01*
X305722Y107950D01*
X323850Y107950D01*
X323850Y43932D01*
X322712Y42794D01*
X322331Y42794D01*
X314325Y50800D01*
X314325Y60547D01*
X313460Y65345D01*
X311150Y63035D01*
G37*
G54D10*
X311150Y63035D02*
X311150Y92075D01*
X307975Y95250D01*
X288925Y95250D01*
X282575Y101600D01*
X282575Y107950D01*
X288925Y107950D01*
X299585Y108025D01*
X305722Y107950D01*
X323850Y107950D01*
X323850Y43932D01*
X322712Y42794D01*
X322331Y42794D01*
X314325Y50800D01*
X314325Y60547D01*
X313460Y65345D01*
X311150Y63035D01*
G54D11*
X269875Y146050D02*
X257175Y146050D01*
X244475Y133350D01*
X199745Y133350D01*
X197964Y135131D01*
G54D11*
X197964Y135131D02*
X166214Y135131D01*
X352425Y88900D02*
G54D13*
D03*
X352425Y63500D02*
G54D13*
D03*
X22225Y88900D02*
G54D13*
D03*
X22225Y63500D02*
G54D13*
D03*
X22225Y38100D02*
G54D13*
D03*
X22225Y12700D02*
G54D13*
D03*
X22225Y-12700D02*
G54D13*
D03*
X22225Y-38100D02*
G54D13*
D03*
X352425Y-63500D02*
G54D13*
D03*
X352425Y-88900D02*
G54D13*
D03*
G36*
X352425Y-114300D02*
X346075Y-114300D01*
X320675Y-88900D01*
X320675Y-69850D01*
X301625Y-50800D01*
X314325Y-50800D01*
X327025Y-38100D01*
X352425Y-38100D01*
X365125Y-50800D01*
X365125Y-101600D01*
X352425Y-114300D01*
G37*
G54D10*
X352425Y-114300D02*
X346075Y-114300D01*
X320675Y-88900D01*
X320675Y-69850D01*
X301625Y-50800D01*
X314325Y-50800D01*
X327025Y-38100D01*
X352425Y-38100D01*
X365125Y-50800D01*
X365125Y-101600D01*
X352425Y-114300D01*
G36*
X365125Y-101600D02*
X365125Y-114300D01*
X358775Y-120650D01*
X352425Y-114300D01*
X365125Y-101600D01*
G37*
G54D10*
X365125Y-101600D02*
X365125Y-114300D01*
X358775Y-120650D01*
X352425Y-114300D01*
X365125Y-101600D01*
G36*
X323850Y107950D02*
X348582Y107950D01*
X365125Y95250D01*
X365125Y31750D01*
X352425Y19050D01*
X333375Y19050D01*
X328609Y25400D01*
X322577Y35686D01*
X318422Y38504D01*
X323850Y107950D01*
G37*
G54D10*
X323850Y107950D02*
X348582Y107950D01*
X365125Y95250D01*
X365125Y31750D01*
X352425Y19050D01*
X333375Y19050D01*
X328609Y25400D01*
X322577Y35686D01*
X318422Y38504D01*
X323850Y107950D01*
X409575Y-112655D02*
G54D13*
D03*
X409575Y90545D02*
G54D13*
D03*
X409575Y-61855D02*
G54D13*
D03*
G54D11*
X409575Y-63500D02*
X409575Y-60200D01*
X358775Y-9400D01*
G54D11*
X409575Y-114300D02*
X384175Y-114300D01*
X339725Y-158750D01*
X276225Y-158750D01*
X250825Y-133350D01*
X250825Y-88900D01*
X219508Y-159634D02*
G54D13*
D03*
X219508Y-185034D02*
G54D13*
D03*
X194108Y-185034D02*
G54D13*
D03*
X168705Y-185030D02*
G54D13*
D03*
X117908Y-185034D02*
G54D13*
D03*
X117908Y-159634D02*
G54D13*
D03*
X22225Y-63500D02*
G54D13*
D03*
X22225Y-88900D02*
G54D13*
D03*
G36*
X276225Y-158750D02*
X220392Y-158750D01*
X219508Y-159634D01*
X219508Y-159183D01*
X206375Y-146050D01*
X206375Y-88900D01*
X244475Y-88900D01*
X250825Y-95250D01*
X250825Y-133350D01*
X276225Y-158750D01*
G37*
G54D11*
X276225Y-158750D02*
X220392Y-158750D01*
X219508Y-159634D01*
X219508Y-159183D01*
X206375Y-146050D01*
X206375Y-88900D01*
X244475Y-88900D01*
X250825Y-95250D01*
X250825Y-133350D01*
X276225Y-158750D01*
G54D10*
X219508Y-185034D02*
X219508Y-184583D01*
X123825Y-88900D01*
X123825Y-45625D01*
X123175Y-44975D01*
G54D10*
X168705Y-185030D02*
X168705Y-152830D01*
X111125Y-95250D01*
X111125Y-42122D01*
X128894Y-24352D01*
X128894Y-24282D01*
X155304Y2127D01*
X155304Y39896D01*
X155175Y40025D01*
G54D10*
X194108Y-185034D02*
X194108Y-190067D01*
X180975Y-203200D01*
X155575Y-203200D01*
X142875Y-190500D01*
X142875Y-142875D01*
X101600Y-98425D01*
X101600Y-40725D01*
X108675Y-30475D01*
X92075Y-155450D02*
G54D12*
D03*
X155575Y-91950D02*
G54D12*
D03*
G54D10*
X155575Y-91950D02*
X154722Y-91950D01*
X131352Y-68580D01*
X131352Y-45152D01*
X131175Y-44975D01*
G54D10*
X117908Y-185034D02*
X105659Y-185034D01*
X92075Y-171450D01*
X92075Y-155450D01*
G54D11*
X117908Y-159634D02*
X117908Y-132382D01*
X89565Y-104039D01*
X89390Y-3570D01*
G54D10*
X92075Y-155450D02*
X88775Y-155450D01*
X38100Y-104775D01*
G54D10*
X108675Y17525D02*
X68325Y17525D01*
X50800Y0D01*
X36245Y-26288D01*
X22225Y-38100D01*
G54D10*
X108675Y-22475D02*
X89539Y-22475D01*
X89417Y-22597D01*
G54D10*
X108675Y-6475D02*
X92294Y-6475D01*
X89390Y-3570D01*
G54D10*
X108675Y25525D02*
X63625Y25525D01*
X22225Y-12700D01*
G36*
X79375Y-63500D02*
X70633Y-53810D01*
X67705Y-42367D01*
X68117Y-22563D01*
X66675Y-38100D01*
X66675Y-60325D01*
X53975Y-73025D01*
X50800Y-73025D01*
X47625Y-76200D01*
X47625Y-98425D01*
X89518Y-141225D01*
X98425Y-141225D01*
X104775Y-136525D01*
X79375Y-111125D01*
X79375Y-63500D01*
G37*
G54D10*
X79375Y-63500D02*
X70633Y-53810D01*
X67705Y-42367D01*
X68117Y-22563D01*
X66675Y-38100D01*
X66675Y-60325D01*
X53975Y-73025D01*
X50800Y-73025D01*
X47625Y-76200D01*
X47625Y-98425D01*
X89518Y-141225D01*
X98425Y-141225D01*
X104775Y-136525D01*
X79375Y-111125D01*
X79375Y-63500D01*
G36*
X206375Y-146050D02*
X200025Y-146050D01*
X168275Y-114300D01*
X168275Y-104775D01*
X171450Y-101600D01*
X171450Y-82550D01*
X168275Y-79375D01*
X155575Y-79375D01*
X142875Y-66675D01*
X142875Y-63500D01*
X146050Y-60325D01*
X193675Y-60325D01*
X193675Y-76200D01*
X212725Y-95250D01*
X212725Y-133350D01*
X200025Y-146050D01*
X206375Y-146050D01*
G37*
G54D10*
X206375Y-146050D02*
X200025Y-146050D01*
X168275Y-114300D01*
X168275Y-104775D01*
X171450Y-101600D01*
X171450Y-82550D01*
X168275Y-79375D01*
X155575Y-79375D01*
X142875Y-66675D01*
X142875Y-63500D01*
X146050Y-60325D01*
X193675Y-60325D01*
X193675Y-76200D01*
X212725Y-95250D01*
X212725Y-133350D01*
X200025Y-146050D01*
X206375Y-146050D01*
X149225Y-66550D02*
G54D12*
D03*
X73025Y-91950D02*
G54D12*
D03*
G54D10*
X123175Y40025D02*
X123175Y45100D01*
X111125Y57150D01*
X66675Y57150D01*
X22225Y12700D01*
G54D10*
X131175Y40025D02*
X131175Y56150D01*
X120650Y66675D01*
X63500Y66675D01*
X41275Y47625D01*
G54D10*
X41275Y47625D02*
X22225Y38100D01*
G54D10*
X139175Y40025D02*
X139175Y60850D01*
X123825Y76200D01*
X60325Y76200D01*
X41275Y63500D01*
X22225Y63500D01*
G54D10*
X147175Y40025D02*
X147175Y65550D01*
X127000Y85725D01*
X57150Y85725D01*
X53975Y88900D01*
X22225Y88900D01*
G54D10*
X38100Y-104775D02*
X38100Y-66675D01*
X34925Y-63500D01*
X22225Y-63500D01*
G54D10*
X155575Y-203200D02*
X98425Y-203200D01*
X79375Y-184150D01*
X79375Y-165100D01*
X22225Y-107950D01*
X22225Y-88900D01*
G36*
X68090Y-3537D02*
X62041Y-2561D01*
X54950Y-11725D01*
X49828Y-21368D01*
X42014Y-34425D01*
X38838Y-49247D01*
X44687Y-56507D01*
X47625Y-76200D01*
X63375Y-76200D01*
X73025Y-66550D01*
X66675Y-50800D01*
X68117Y-29730D01*
X68117Y-3564D01*
X68090Y-3537D01*
G37*
G54D10*
X68090Y-3537D02*
X62041Y-2561D01*
X54950Y-11725D01*
X49828Y-21368D01*
X42014Y-34425D01*
X38838Y-49247D01*
X44687Y-56507D01*
X47625Y-76200D01*
X63375Y-76200D01*
X73025Y-66550D01*
X66675Y-50800D01*
X68117Y-29730D01*
X68117Y-3564D01*
X68090Y-3537D01*
G54D10*
X108675Y1525D02*
X100708Y1525D01*
X96803Y5430D01*
X96803Y5588D01*
X93634Y8758D01*
X71130Y8758D01*
X68594Y6222D01*
X68594Y-3032D01*
X68090Y-3537D01*
X85725Y-44450D02*
G54D12*
D03*
X215717Y31764D02*
G54D12*
D03*
G36*
X202175Y26525D02*
X200175Y28525D01*
X189175Y28525D01*
X188175Y27525D01*
X188175Y23525D01*
X189175Y22525D01*
X200175Y22525D01*
X202175Y24525D01*
X202175Y26525D01*
G37*
G54D14*
X202175Y26525D02*
X200175Y28525D01*
X189175Y28525D01*
X188175Y27525D01*
X188175Y23525D01*
X189175Y22525D01*
X200175Y22525D01*
X202175Y24525D01*
X202175Y26525D01*
G36*
X202175Y18525D02*
X200175Y20525D01*
X189175Y20525D01*
X188175Y19525D01*
X188175Y15525D01*
X189175Y14525D01*
X200175Y14525D01*
X202175Y16525D01*
X202175Y18525D01*
G37*
G54D14*
X202175Y18525D02*
X200175Y20525D01*
X189175Y20525D01*
X188175Y19525D01*
X188175Y15525D01*
X189175Y14525D01*
X200175Y14525D01*
X202175Y16525D01*
X202175Y18525D01*
X193675Y25525D02*
G54D15*
D03*
X193675Y17525D02*
G54D15*
D03*
G36*
X202175Y10525D02*
X200175Y12525D01*
X189175Y12525D01*
X188175Y11525D01*
X188175Y7525D01*
X189175Y6525D01*
X200175Y6525D01*
X202175Y8525D01*
X202175Y10525D01*
G37*
G54D14*
X202175Y10525D02*
X200175Y12525D01*
X189175Y12525D01*
X188175Y11525D01*
X188175Y7525D01*
X189175Y6525D01*
X200175Y6525D01*
X202175Y8525D01*
X202175Y10525D01*
G36*
X202175Y2525D02*
X200175Y4525D01*
X189175Y4525D01*
X188175Y3525D01*
X188175Y-475D01*
X189175Y-1475D01*
X200175Y-1475D01*
X202175Y525D01*
X202175Y2525D01*
G37*
G54D14*
X202175Y2525D02*
X200175Y4525D01*
X189175Y4525D01*
X188175Y3525D01*
X188175Y-475D01*
X189175Y-1475D01*
X200175Y-1475D01*
X202175Y525D01*
X202175Y2525D01*
X193675Y9525D02*
G54D15*
D03*
X193675Y1525D02*
G54D15*
D03*
G36*
X202175Y-5475D02*
X200175Y-3475D01*
X189175Y-3475D01*
X188175Y-4475D01*
X188175Y-8475D01*
X189175Y-9475D01*
X200175Y-9475D01*
X202175Y-7475D01*
X202175Y-5475D01*
G37*
G54D14*
X202175Y-5475D02*
X200175Y-3475D01*
X189175Y-3475D01*
X188175Y-4475D01*
X188175Y-8475D01*
X189175Y-9475D01*
X200175Y-9475D01*
X202175Y-7475D01*
X202175Y-5475D01*
G36*
X202175Y-13475D02*
X200175Y-11475D01*
X189175Y-11475D01*
X188175Y-12475D01*
X188175Y-16475D01*
X189175Y-17475D01*
X200175Y-17475D01*
X202175Y-15475D01*
X202175Y-13475D01*
G37*
G54D14*
X202175Y-13475D02*
X200175Y-11475D01*
X189175Y-11475D01*
X188175Y-12475D01*
X188175Y-16475D01*
X189175Y-17475D01*
X200175Y-17475D01*
X202175Y-15475D01*
X202175Y-13475D01*
X193675Y-6475D02*
G54D15*
D03*
X193675Y-14475D02*
G54D15*
D03*
G36*
X202175Y-21475D02*
X200175Y-19475D01*
X189175Y-19475D01*
X188175Y-20475D01*
X188175Y-24475D01*
X189175Y-25475D01*
X200175Y-25475D01*
X202175Y-23475D01*
X202175Y-21475D01*
G37*
G54D14*
X202175Y-21475D02*
X200175Y-19475D01*
X189175Y-19475D01*
X188175Y-20475D01*
X188175Y-24475D01*
X189175Y-25475D01*
X200175Y-25475D01*
X202175Y-23475D01*
X202175Y-21475D01*
G36*
X202175Y-29475D02*
X200175Y-27475D01*
X189175Y-27475D01*
X188175Y-28475D01*
X188175Y-32475D01*
X189175Y-33475D01*
X200175Y-33475D01*
X202175Y-31475D01*
X202175Y-29475D01*
G37*
G54D14*
X202175Y-29475D02*
X200175Y-27475D01*
X189175Y-27475D01*
X188175Y-28475D01*
X188175Y-32475D01*
X189175Y-33475D01*
X200175Y-33475D01*
X202175Y-31475D01*
X202175Y-29475D01*
X193675Y-22475D02*
G54D15*
D03*
X193675Y-30475D02*
G54D15*
D03*
G36*
X122175Y48525D02*
X120175Y46525D01*
X120175Y35525D01*
X121175Y34525D01*
X125175Y34525D01*
X126175Y35525D01*
X126175Y46525D01*
X124175Y48525D01*
X122175Y48525D01*
G37*
G54D14*
X122175Y48525D02*
X120175Y46525D01*
X120175Y35525D01*
X121175Y34525D01*
X125175Y34525D01*
X126175Y35525D01*
X126175Y46525D01*
X124175Y48525D01*
X122175Y48525D01*
G36*
X130175Y48525D02*
X128175Y46525D01*
X128175Y35525D01*
X129175Y34525D01*
X133175Y34525D01*
X134175Y35525D01*
X134175Y46525D01*
X132175Y48525D01*
X130175Y48525D01*
G37*
G54D14*
X130175Y48525D02*
X128175Y46525D01*
X128175Y35525D01*
X129175Y34525D01*
X133175Y34525D01*
X134175Y35525D01*
X134175Y46525D01*
X132175Y48525D01*
X130175Y48525D01*
X123175Y40025D02*
G54D15*
D03*
X131175Y40025D02*
G54D15*
D03*
G36*
X138175Y48525D02*
X136175Y46525D01*
X136175Y35525D01*
X137175Y34525D01*
X141175Y34525D01*
X142175Y35525D01*
X142175Y46525D01*
X140175Y48525D01*
X138175Y48525D01*
G37*
G54D14*
X138175Y48525D02*
X136175Y46525D01*
X136175Y35525D01*
X137175Y34525D01*
X141175Y34525D01*
X142175Y35525D01*
X142175Y46525D01*
X140175Y48525D01*
X138175Y48525D01*
G36*
X146175Y48525D02*
X144175Y46525D01*
X144175Y35525D01*
X145175Y34525D01*
X149175Y34525D01*
X150175Y35525D01*
X150175Y46525D01*
X148175Y48525D01*
X146175Y48525D01*
G37*
G54D14*
X146175Y48525D02*
X144175Y46525D01*
X144175Y35525D01*
X145175Y34525D01*
X149175Y34525D01*
X150175Y35525D01*
X150175Y46525D01*
X148175Y48525D01*
X146175Y48525D01*
X139175Y40025D02*
G54D15*
D03*
X147175Y40025D02*
G54D15*
D03*
G36*
X154175Y48525D02*
X152175Y46525D01*
X152175Y35525D01*
X153175Y34525D01*
X157175Y34525D01*
X158175Y35525D01*
X158175Y46525D01*
X156175Y48525D01*
X154175Y48525D01*
G37*
G54D14*
X154175Y48525D02*
X152175Y46525D01*
X152175Y35525D01*
X153175Y34525D01*
X157175Y34525D01*
X158175Y35525D01*
X158175Y46525D01*
X156175Y48525D01*
X154175Y48525D01*
G36*
X162175Y48525D02*
X160175Y46525D01*
X160175Y35525D01*
X161175Y34525D01*
X165175Y34525D01*
X166175Y35525D01*
X166175Y46525D01*
X164175Y48525D01*
X162175Y48525D01*
G37*
G54D14*
X162175Y48525D02*
X160175Y46525D01*
X160175Y35525D01*
X161175Y34525D01*
X165175Y34525D01*
X166175Y35525D01*
X166175Y46525D01*
X164175Y48525D01*
X162175Y48525D01*
X155175Y40025D02*
G54D15*
D03*
X163175Y40025D02*
G54D15*
D03*
G36*
X170175Y48525D02*
X168175Y46525D01*
X168175Y35525D01*
X169175Y34525D01*
X173175Y34525D01*
X174175Y35525D01*
X174175Y46525D01*
X172175Y48525D01*
X170175Y48525D01*
G37*
G54D14*
X170175Y48525D02*
X168175Y46525D01*
X168175Y35525D01*
X169175Y34525D01*
X173175Y34525D01*
X174175Y35525D01*
X174175Y46525D01*
X172175Y48525D01*
X170175Y48525D01*
G36*
X178175Y48525D02*
X176175Y46525D01*
X176175Y35525D01*
X177175Y34525D01*
X181175Y34525D01*
X182175Y35525D01*
X182175Y46525D01*
X180175Y48525D01*
X178175Y48525D01*
G37*
G54D14*
X178175Y48525D02*
X176175Y46525D01*
X176175Y35525D01*
X177175Y34525D01*
X181175Y34525D01*
X182175Y35525D01*
X182175Y46525D01*
X180175Y48525D01*
X178175Y48525D01*
X171175Y40025D02*
G54D15*
D03*
X179175Y40025D02*
G54D15*
D03*
G36*
X100175Y-31475D02*
X102175Y-33475D01*
X113175Y-33475D01*
X114175Y-32475D01*
X114175Y-28475D01*
X113175Y-27475D01*
X102175Y-27475D01*
X100175Y-29475D01*
X100175Y-31475D01*
G37*
G54D14*
X100175Y-31475D02*
X102175Y-33475D01*
X113175Y-33475D01*
X114175Y-32475D01*
X114175Y-28475D01*
X113175Y-27475D01*
X102175Y-27475D01*
X100175Y-29475D01*
X100175Y-31475D01*
G36*
X100175Y-23475D02*
X102175Y-25475D01*
X113175Y-25475D01*
X114175Y-24475D01*
X114175Y-20475D01*
X113175Y-19475D01*
X102175Y-19475D01*
X100175Y-21475D01*
X100175Y-23475D01*
G37*
G54D14*
X100175Y-23475D02*
X102175Y-25475D01*
X113175Y-25475D01*
X114175Y-24475D01*
X114175Y-20475D01*
X113175Y-19475D01*
X102175Y-19475D01*
X100175Y-21475D01*
X100175Y-23475D01*
X108675Y-30475D02*
G54D15*
D03*
X108675Y-22475D02*
G54D15*
D03*
G36*
X100175Y-15475D02*
X102175Y-17475D01*
X113175Y-17475D01*
X114175Y-16475D01*
X114175Y-12475D01*
X113175Y-11475D01*
X102175Y-11475D01*
X100175Y-13475D01*
X100175Y-15475D01*
G37*
G54D14*
X100175Y-15475D02*
X102175Y-17475D01*
X113175Y-17475D01*
X114175Y-16475D01*
X114175Y-12475D01*
X113175Y-11475D01*
X102175Y-11475D01*
X100175Y-13475D01*
X100175Y-15475D01*
G36*
X100175Y-7475D02*
X102175Y-9475D01*
X113175Y-9475D01*
X114175Y-8475D01*
X114175Y-4475D01*
X113175Y-3475D01*
X102175Y-3475D01*
X100175Y-5475D01*
X100175Y-7475D01*
G37*
G54D14*
X100175Y-7475D02*
X102175Y-9475D01*
X113175Y-9475D01*
X114175Y-8475D01*
X114175Y-4475D01*
X113175Y-3475D01*
X102175Y-3475D01*
X100175Y-5475D01*
X100175Y-7475D01*
X108675Y-14475D02*
G54D15*
D03*
X108675Y-6475D02*
G54D15*
D03*
G36*
X100175Y525D02*
X102175Y-1475D01*
X113175Y-1475D01*
X114175Y-475D01*
X114175Y3525D01*
X113175Y4525D01*
X102175Y4525D01*
X100175Y2525D01*
X100175Y525D01*
G37*
G54D14*
X100175Y525D02*
X102175Y-1475D01*
X113175Y-1475D01*
X114175Y-475D01*
X114175Y3525D01*
X113175Y4525D01*
X102175Y4525D01*
X100175Y2525D01*
X100175Y525D01*
G36*
X100175Y8525D02*
X102175Y6525D01*
X113175Y6525D01*
X114175Y7525D01*
X114175Y11525D01*
X113175Y12525D01*
X102175Y12525D01*
X100175Y10525D01*
X100175Y8525D01*
G37*
G54D14*
X100175Y8525D02*
X102175Y6525D01*
X113175Y6525D01*
X114175Y7525D01*
X114175Y11525D01*
X113175Y12525D01*
X102175Y12525D01*
X100175Y10525D01*
X100175Y8525D01*
X108675Y1525D02*
G54D15*
D03*
X108675Y9525D02*
G54D15*
D03*
G36*
X100175Y16525D02*
X102175Y14525D01*
X113175Y14525D01*
X114175Y15525D01*
X114175Y19525D01*
X113175Y20525D01*
X102175Y20525D01*
X100175Y18525D01*
X100175Y16525D01*
G37*
G54D14*
X100175Y16525D02*
X102175Y14525D01*
X113175Y14525D01*
X114175Y15525D01*
X114175Y19525D01*
X113175Y20525D01*
X102175Y20525D01*
X100175Y18525D01*
X100175Y16525D01*
G36*
X100175Y24525D02*
X102175Y22525D01*
X113175Y22525D01*
X114175Y23525D01*
X114175Y27525D01*
X113175Y28525D01*
X102175Y28525D01*
X100175Y26525D01*
X100175Y24525D01*
G37*
G54D14*
X100175Y24525D02*
X102175Y22525D01*
X113175Y22525D01*
X114175Y23525D01*
X114175Y27525D01*
X113175Y28525D01*
X102175Y28525D01*
X100175Y26525D01*
X100175Y24525D01*
X108675Y17525D02*
G54D15*
D03*
X108675Y25525D02*
G54D15*
D03*
G36*
X180175Y-53475D02*
X182175Y-51475D01*
X182175Y-40475D01*
X181175Y-39475D01*
X177175Y-39475D01*
X176175Y-40475D01*
X176175Y-51475D01*
X178175Y-53475D01*
X180175Y-53475D01*
G37*
G54D14*
X180175Y-53475D02*
X182175Y-51475D01*
X182175Y-40475D01*
X181175Y-39475D01*
X177175Y-39475D01*
X176175Y-40475D01*
X176175Y-51475D01*
X178175Y-53475D01*
X180175Y-53475D01*
G36*
X172175Y-53475D02*
X174175Y-51475D01*
X174175Y-40475D01*
X173175Y-39475D01*
X169175Y-39475D01*
X168175Y-40475D01*
X168175Y-51475D01*
X170175Y-53475D01*
X172175Y-53475D01*
G37*
G54D14*
X172175Y-53475D02*
X174175Y-51475D01*
X174175Y-40475D01*
X173175Y-39475D01*
X169175Y-39475D01*
X168175Y-40475D01*
X168175Y-51475D01*
X170175Y-53475D01*
X172175Y-53475D01*
X179175Y-44975D02*
G54D15*
D03*
X171175Y-44975D02*
G54D15*
D03*
G36*
X164175Y-53475D02*
X166175Y-51475D01*
X166175Y-40475D01*
X165175Y-39475D01*
X161175Y-39475D01*
X160175Y-40475D01*
X160175Y-51475D01*
X162175Y-53475D01*
X164175Y-53475D01*
G37*
G54D14*
X164175Y-53475D02*
X166175Y-51475D01*
X166175Y-40475D01*
X165175Y-39475D01*
X161175Y-39475D01*
X160175Y-40475D01*
X160175Y-51475D01*
X162175Y-53475D01*
X164175Y-53475D01*
G36*
X156175Y-53475D02*
X158175Y-51475D01*
X158175Y-40475D01*
X157175Y-39475D01*
X153175Y-39475D01*
X152175Y-40475D01*
X152175Y-51475D01*
X154175Y-53475D01*
X156175Y-53475D01*
G37*
G54D14*
X156175Y-53475D02*
X158175Y-51475D01*
X158175Y-40475D01*
X157175Y-39475D01*
X153175Y-39475D01*
X152175Y-40475D01*
X152175Y-51475D01*
X154175Y-53475D01*
X156175Y-53475D01*
X163175Y-44975D02*
G54D15*
D03*
X155175Y-44975D02*
G54D15*
D03*
G36*
X148175Y-53475D02*
X150175Y-51475D01*
X150175Y-40475D01*
X149175Y-39475D01*
X145175Y-39475D01*
X144175Y-40475D01*
X144175Y-51475D01*
X146175Y-53475D01*
X148175Y-53475D01*
G37*
G54D14*
X148175Y-53475D02*
X150175Y-51475D01*
X150175Y-40475D01*
X149175Y-39475D01*
X145175Y-39475D01*
X144175Y-40475D01*
X144175Y-51475D01*
X146175Y-53475D01*
X148175Y-53475D01*
G36*
X140175Y-53475D02*
X142175Y-51475D01*
X142175Y-40475D01*
X141175Y-39475D01*
X137175Y-39475D01*
X136175Y-40475D01*
X136175Y-51475D01*
X138175Y-53475D01*
X140175Y-53475D01*
G37*
G54D14*
X140175Y-53475D02*
X142175Y-51475D01*
X142175Y-40475D01*
X141175Y-39475D01*
X137175Y-39475D01*
X136175Y-40475D01*
X136175Y-51475D01*
X138175Y-53475D01*
X140175Y-53475D01*
X147175Y-44975D02*
G54D15*
D03*
X139175Y-44975D02*
G54D15*
D03*
G36*
X132175Y-53475D02*
X134175Y-51475D01*
X134175Y-40475D01*
X133175Y-39475D01*
X129175Y-39475D01*
X128175Y-40475D01*
X128175Y-51475D01*
X130175Y-53475D01*
X132175Y-53475D01*
G37*
G54D14*
X132175Y-53475D02*
X134175Y-51475D01*
X134175Y-40475D01*
X133175Y-39475D01*
X129175Y-39475D01*
X128175Y-40475D01*
X128175Y-51475D01*
X130175Y-53475D01*
X132175Y-53475D01*
G36*
X124175Y-53475D02*
X126175Y-51475D01*
X126175Y-40475D01*
X125175Y-39475D01*
X121175Y-39475D01*
X120175Y-40475D01*
X120175Y-51475D01*
X122175Y-53475D01*
X124175Y-53475D01*
G37*
G54D14*
X124175Y-53475D02*
X126175Y-51475D01*
X126175Y-40475D01*
X125175Y-39475D01*
X121175Y-39475D01*
X120175Y-40475D01*
X120175Y-51475D01*
X122175Y-53475D01*
X124175Y-53475D01*
X131175Y-44975D02*
G54D15*
D03*
X123175Y-44975D02*
G54D15*
D03*
X220835Y3158D02*
G54D16*
D03*
X242135Y3192D02*
G54D16*
D03*
X220454Y-16360D02*
G54D16*
D03*
X241754Y-16326D02*
G54D16*
D03*
X67905Y-6595D02*
G54D16*
D03*
X89205Y-6561D02*
G54D16*
D03*
X68117Y-22563D02*
G54D16*
D03*
X89417Y-22530D02*
G54D16*
D03*
X292160Y65379D02*
G54D16*
D03*
X313460Y65412D02*
G54D16*
D03*
X267318Y-91328D02*
G54D17*
D03*
X267351Y-112628D02*
G54D17*
D03*
G36*
X272902Y-18313D02*
X267246Y-12656D01*
X277357Y-2545D01*
X283014Y-8201D01*
X272902Y-18313D01*
G37*
G36*
X257817Y-3276D02*
X252160Y2381D01*
X262272Y12493D01*
X267929Y6836D01*
X257817Y-3276D01*
G37*
X166214Y135131D02*
G54D18*
D03*
X166214Y107131D02*
G54D18*
D03*
X197964Y135131D02*
G54D18*
D03*
X197964Y107131D02*
G54D18*
D03*
X273179Y-73778D02*
G54D19*
D03*
X273179Y-50778D02*
G54D19*
D03*
X273179Y-27778D02*
G54D19*
D03*
X338179Y-50778D02*
G54D20*
D03*
X292318Y22984D02*
G54D21*
D03*
X312318Y22984D02*
G54D21*
D03*
X298668Y-129416D02*
G54D21*
D03*
X318668Y-129416D02*
G54D21*
D03*
X217376Y66800D02*
G54D22*
D03*
X276276Y66800D02*
G54D22*
D03*
X217376Y79500D02*
G54D22*
D03*
X276276Y79500D02*
G54D22*
D03*
X217376Y92200D02*
G54D22*
D03*
X276276Y92200D02*
G54D22*
D03*
X217376Y104900D02*
G54D22*
D03*
X276276Y104900D02*
G54D22*
D03*
X305514Y121013D02*
G54D18*
D03*
X305514Y149013D02*
G54D18*
D03*
X352425Y152400D02*
G54D13*
D03*
X327025Y152400D02*
G54D13*
D03*
G54D10*
X305514Y149013D02*
X323638Y149013D01*
X327025Y152400D01*
G54D10*
X352425Y152400D02*
X352425Y133350D01*
X409575Y39745D02*
G54D13*
D03*
G36*
X403225Y-22225D02*
X415925Y-22225D01*
X422275Y-12700D01*
X422275Y-3175D01*
X415925Y3175D01*
X400050Y9525D01*
X358775Y44450D01*
X352425Y38100D01*
X352425Y19050D01*
X365125Y12700D01*
X403225Y-22225D01*
G37*
G54D10*
X403225Y-22225D02*
X415925Y-22225D01*
X422275Y-12700D01*
X422275Y-3175D01*
X415925Y3175D01*
X400050Y9525D01*
X358775Y44450D01*
X352425Y38100D01*
X352425Y19050D01*
X365125Y12700D01*
X403225Y-22225D01*
G36*
X238125Y-158750D02*
X238125Y-184150D01*
X257175Y-203200D01*
X365125Y-203200D01*
X377825Y-190500D01*
X377825Y-158750D01*
X390525Y-146050D01*
X415925Y-146050D01*
X422275Y-139700D01*
X422275Y-101600D01*
X415925Y-95250D01*
X384175Y-95250D01*
X377825Y-101600D01*
X377825Y-120650D01*
X339725Y-158750D01*
X238125Y-158750D01*
G37*
G54D10*
X238125Y-158750D02*
X238125Y-184150D01*
X257175Y-203200D01*
X365125Y-203200D01*
X377825Y-190500D01*
X377825Y-158750D01*
X390525Y-146050D01*
X415925Y-146050D01*
X422275Y-139700D01*
X422275Y-101600D01*
X415925Y-95250D01*
X384175Y-95250D01*
X377825Y-101600D01*
X377825Y-120650D01*
X339725Y-158750D01*
X238125Y-158750D01*
X44450Y146050D02*
G54D23*
D03*
X44450Y-171450D02*
G54D23*
D03*
X406400Y-171450D02*
G54D23*
D03*
X409575Y-11055D02*
G54D13*
D03*
G54D10*
X346075Y123950D02*
X381000Y95250D01*
X381000Y50800D01*
X393700Y38100D01*
X407930Y38100D01*
X409575Y39745D01*
G54D10*
X346075Y133475D02*
X352425Y133350D01*
X409575Y90545D01*
X406400Y146050D02*
G54D23*
D03*
X136525Y107950D02*
G54D13*
D03*
X136525Y133350D02*
G54D13*
D03*
G54D10*
X166214Y135131D02*
X138306Y135131D01*
X136525Y133350D01*
G54D10*
X166214Y107131D02*
X137344Y107131D01*
X136525Y107950D01*
M02*
