%FSLAX34Y34*%
%MOMM*%
%LNSILK_BOTTOM*%
G71*
G01*
%ADD10C, 0.17*%
%ADD11C, 0.25*%
%ADD12C, 0.10*%
%ADD13C, 0.18*%
%LPD*%
G54D10*
X184175Y32525D02*
X116175Y32525D01*
X116175Y-37475D01*
X186175Y-37475D01*
X186175Y30525D01*
X184175Y32525D01*
G54D10*
X155214Y146131D02*
X177214Y146131D01*
X177214Y96131D01*
X155214Y96131D01*
X155214Y146131D01*
G54D11*
X166452Y166606D02*
X168230Y163406D01*
X170008Y162340D01*
X173563Y162340D01*
G54D11*
X173563Y170873D02*
X159341Y170873D01*
X159341Y165540D01*
X160230Y163406D01*
X162008Y162340D01*
X163785Y162340D01*
X165563Y163406D01*
X166452Y165540D01*
X166452Y170873D01*
G54D11*
X164674Y157362D02*
X159341Y152029D01*
X173563Y152029D01*
G54D10*
X186964Y146131D02*
X208964Y146131D01*
X208964Y96131D01*
X186964Y96131D01*
X186964Y146131D01*
G54D11*
X198187Y166906D02*
X199964Y163706D01*
X201742Y162640D01*
X205298Y162640D01*
G54D11*
X205298Y171173D02*
X191075Y171173D01*
X191075Y165840D01*
X191964Y163706D01*
X193742Y162640D01*
X195520Y162640D01*
X197298Y163706D01*
X198187Y165840D01*
X198187Y171173D01*
G54D11*
X205298Y149129D02*
X205298Y157662D01*
X204409Y157662D01*
X202631Y156595D01*
X197298Y150195D01*
X195520Y149129D01*
X193742Y149129D01*
X191964Y150195D01*
X191075Y152329D01*
X191075Y154462D01*
X191964Y156595D01*
X193742Y157662D01*
G54D10*
X323679Y-83278D02*
X288679Y-83278D01*
X288679Y-18278D01*
X323679Y-18278D01*
X323679Y-83278D01*
G54D11*
X325178Y-105011D02*
X316645Y-105011D01*
G54D11*
X320912Y-105011D02*
X320912Y-90789D01*
G54D11*
X325178Y-90789D02*
X316645Y-90789D01*
G54D11*
X303134Y-102344D02*
X304201Y-104122D01*
X306334Y-105011D01*
X308467Y-105011D01*
X310601Y-104122D01*
X311667Y-102344D01*
X311667Y-93456D01*
X310601Y-91678D01*
X308467Y-90789D01*
X306334Y-90789D01*
X304201Y-91678D01*
X303134Y-93456D01*
G54D11*
X289623Y-105011D02*
X298156Y-105011D01*
X298156Y-104122D01*
X297090Y-102344D01*
X290690Y-97011D01*
X289623Y-95233D01*
X289623Y-93456D01*
X290690Y-91678D01*
X292823Y-90789D01*
X294956Y-90789D01*
X297090Y-91678D01*
X298156Y-93456D01*
G54D10*
X227995Y60494D02*
X227995Y111294D01*
X266195Y111294D01*
X266195Y60494D01*
X227995Y60494D01*
G54D12*
G75*
G01X236025Y64250D02*
G03X236025Y64250I-1600J0D01*
G01*
G36*
G75*
G01X236025Y64250D02*
G03X236025Y64250I-1600J0D01*
G01*
G37*
X236025Y64250D01*
G54D12*
G75*
G01X182025Y26150D02*
G03X182025Y26150I-1600J0D01*
G01*
G36*
G75*
G01X182025Y26150D02*
G03X182025Y26150I-1600J0D01*
G01*
G37*
X182025Y26150D01*
G54D10*
X316514Y110013D02*
X294514Y110013D01*
X294514Y160013D01*
X316514Y160013D01*
X316514Y110013D01*
G54D11*
X281036Y176913D02*
X282814Y173713D01*
X284592Y172646D01*
X288147Y172646D01*
G54D11*
X288147Y181180D02*
X273925Y181180D01*
X273925Y175846D01*
X274814Y173713D01*
X276592Y172646D01*
X278369Y172646D01*
X280147Y173713D01*
X281036Y175846D01*
X281036Y181180D01*
G54D11*
X276592Y167669D02*
X274814Y166602D01*
X273925Y164469D01*
X273925Y162335D01*
X274814Y160202D01*
X276592Y159135D01*
X278369Y159135D01*
X280147Y160202D01*
X281036Y162335D01*
X281925Y160202D01*
X283703Y159135D01*
X285480Y159135D01*
X287258Y160202D01*
X288147Y162335D01*
X288147Y164469D01*
X287258Y166602D01*
X285480Y167669D01*
G54D13*
X161358Y56367D02*
X156025Y70589D01*
X150692Y56367D01*
G54D13*
X159225Y61700D02*
X152825Y61700D01*
G54D13*
X142514Y56367D02*
X142514Y70589D01*
G54D13*
X146780Y70589D02*
X138247Y70589D01*
G54D13*
X134336Y56367D02*
X134336Y64367D01*
G54D13*
X134336Y62945D02*
X132203Y64367D01*
X130070Y63834D01*
X129003Y62589D01*
X129003Y56367D01*
G54D13*
X129003Y62945D02*
X126870Y64367D01*
X124736Y63834D01*
X123670Y62589D01*
X123670Y56367D01*
G54D13*
X113358Y57256D02*
X115065Y56367D01*
X117198Y56367D01*
X119332Y57256D01*
X119758Y59034D01*
X119758Y62056D01*
X118692Y63834D01*
X116558Y64367D01*
X114425Y63834D01*
X113358Y62589D01*
X113358Y60811D01*
X119758Y60811D01*
G54D13*
X109448Y53700D02*
X107314Y52811D01*
X105821Y52811D01*
X103688Y53700D01*
X103048Y55478D01*
X103048Y64367D01*
G54D13*
X103048Y62056D02*
X104114Y63834D01*
X106248Y64367D01*
X108381Y63834D01*
X109448Y62056D01*
X109448Y58500D01*
X108381Y56723D01*
X106248Y56367D01*
X104114Y56723D01*
X103048Y58500D01*
G54D13*
X99136Y63478D02*
X97003Y64367D01*
X94443Y64367D01*
X92736Y62589D01*
X92736Y56367D01*
G54D13*
X92736Y59034D02*
X93803Y60811D01*
X95936Y61167D01*
X98070Y60811D01*
X99136Y59034D01*
X98710Y57256D01*
X97003Y56367D01*
X95936Y56367D01*
X95510Y56367D01*
X93803Y57256D01*
X92736Y59034D01*
G54D13*
X83492Y63478D02*
X85626Y63478D01*
X87759Y64367D01*
X88826Y66145D01*
X88826Y67923D01*
X87759Y69700D01*
X85626Y70589D01*
X83492Y70589D01*
X81359Y69700D01*
X80292Y67923D01*
X80292Y66145D01*
X81359Y64367D01*
X83492Y63478D01*
X81359Y62589D01*
X80292Y60811D01*
X80292Y59034D01*
X81359Y57256D01*
X83492Y56367D01*
X85626Y56367D01*
X87759Y57256D01*
X88826Y59034D01*
X88826Y60811D01*
X87759Y62589D01*
X85626Y63478D01*
G54D13*
X244825Y22961D02*
X245892Y21183D01*
X248025Y20294D01*
X250158Y20294D01*
X252292Y21183D01*
X253358Y22961D01*
X253358Y31850D01*
X252292Y33628D01*
X250158Y34516D01*
X248025Y34516D01*
X245892Y33628D01*
X244825Y31850D01*
G54D13*
X240914Y29183D02*
X235581Y34516D01*
X235581Y20294D01*
G54D13*
X226487Y-38992D02*
X227554Y-40770D01*
X229687Y-41659D01*
X231820Y-41659D01*
X233954Y-40770D01*
X235020Y-38992D01*
X235020Y-30103D01*
X233954Y-28326D01*
X231820Y-27437D01*
X229687Y-27437D01*
X227554Y-28326D01*
X226487Y-30103D01*
G54D13*
X214043Y-41659D02*
X222576Y-41659D01*
X222576Y-40770D01*
X221510Y-38992D01*
X215110Y-33659D01*
X214043Y-31881D01*
X214043Y-30103D01*
X215110Y-28326D01*
X217243Y-27437D01*
X219376Y-27437D01*
X221510Y-28326D01*
X222576Y-30103D01*
G54D13*
X80288Y8873D02*
X81355Y7095D01*
X83488Y6206D01*
X85622Y6206D01*
X87755Y7095D01*
X88822Y8873D01*
X88822Y17762D01*
X87755Y19539D01*
X85622Y20428D01*
X83488Y20428D01*
X81355Y19539D01*
X80288Y17762D01*
G54D13*
X76378Y17762D02*
X75311Y19539D01*
X73178Y20428D01*
X71044Y20428D01*
X68911Y19539D01*
X67844Y17762D01*
X67844Y15984D01*
X68911Y14206D01*
X71044Y13317D01*
X68911Y12428D01*
X67844Y10650D01*
X67844Y8873D01*
X68911Y7095D01*
X71044Y6206D01*
X73178Y6206D01*
X75311Y7095D01*
X76378Y8873D01*
G54D13*
X80489Y-70596D02*
X81556Y-72374D01*
X83689Y-73263D01*
X85822Y-73263D01*
X87956Y-72374D01*
X89022Y-70596D01*
X89022Y-61707D01*
X87956Y-59930D01*
X85822Y-59041D01*
X83689Y-59041D01*
X81556Y-59930D01*
X80489Y-61707D01*
G54D13*
X70178Y-73263D02*
X70178Y-59041D01*
X76578Y-67930D01*
X76578Y-69707D01*
X68045Y-69707D01*
G54D11*
X247187Y-98994D02*
X248254Y-100772D01*
X250387Y-101661D01*
X252520Y-101661D01*
X254654Y-100772D01*
X255720Y-98994D01*
X255720Y-90105D01*
X254654Y-88328D01*
X252520Y-87439D01*
X250387Y-87439D01*
X248254Y-88328D01*
X247187Y-90105D01*
G54D11*
X242210Y-87439D02*
X233676Y-87439D01*
X234743Y-89217D01*
X236876Y-91883D01*
X239010Y-95439D01*
X240076Y-98105D01*
X240076Y-101661D01*
G54D13*
X297025Y-8244D02*
X298092Y-10022D01*
X300225Y-10911D01*
X302359Y-10911D01*
X304492Y-10022D01*
X305559Y-8244D01*
X305559Y645D01*
X304492Y2422D01*
X302359Y3311D01*
X300225Y3311D01*
X298092Y2422D01*
X297025Y645D01*
G54D13*
X284581Y645D02*
X285648Y2422D01*
X287781Y3311D01*
X289915Y3311D01*
X292048Y2422D01*
X293115Y645D01*
X293115Y-3800D01*
X293115Y-4689D01*
X289915Y-2911D01*
X287781Y-2911D01*
X285648Y-3800D01*
X284581Y-5578D01*
X284581Y-8244D01*
X285648Y-10022D01*
X287781Y-10911D01*
X289915Y-10911D01*
X292048Y-10022D01*
X293115Y-8244D01*
X293115Y-3800D01*
G54D11*
X329822Y43576D02*
X330889Y41798D01*
X333022Y40909D01*
X335156Y40909D01*
X337289Y41798D01*
X338356Y43576D01*
X338356Y52465D01*
X337289Y54242D01*
X335156Y55131D01*
X333022Y55131D01*
X330889Y54242D01*
X329822Y52465D01*
G54D11*
X316311Y55131D02*
X324845Y55131D01*
X324845Y48909D01*
X323778Y48909D01*
X321645Y49798D01*
X319511Y49798D01*
X317378Y48909D01*
X316311Y47131D01*
X316311Y43576D01*
X317378Y41798D01*
X319511Y40909D01*
X321645Y40909D01*
X323778Y41798D01*
X324845Y43576D01*
G54D13*
X269185Y43556D02*
X269185Y57778D01*
X263852Y48889D01*
X258518Y57778D01*
X258518Y43556D01*
G54D13*
X254607Y43556D02*
X249274Y57778D01*
X243940Y43556D01*
G54D13*
X252474Y48889D02*
X246074Y48889D01*
G54D13*
X240029Y57778D02*
X229362Y43556D01*
G54D13*
X240029Y43556D02*
X229362Y57778D01*
G54D13*
X219051Y43556D02*
X219051Y57778D01*
X225451Y48889D01*
X225451Y47111D01*
X216918Y47111D01*
G54D13*
X207674Y50667D02*
X209807Y50667D01*
X211940Y51556D01*
X213007Y53333D01*
X213007Y55111D01*
X211940Y56889D01*
X209807Y57778D01*
X207674Y57778D01*
X205540Y56889D01*
X204474Y55111D01*
X204474Y53333D01*
X205540Y51556D01*
X207674Y50667D01*
X205540Y49778D01*
X204474Y48000D01*
X204474Y46222D01*
X205540Y44444D01*
X207674Y43556D01*
X209807Y43556D01*
X211940Y44444D01*
X213007Y46222D01*
X213007Y48000D01*
X211940Y49778D01*
X209807Y50667D01*
G54D13*
X192030Y57778D02*
X200563Y57778D01*
X200563Y51556D01*
X199496Y51556D01*
X197363Y52444D01*
X195230Y52444D01*
X193096Y51556D01*
X192030Y49778D01*
X192030Y46222D01*
X193096Y44444D01*
X195230Y43556D01*
X197363Y43556D01*
X199496Y44444D01*
X200563Y46222D01*
M02*
