; Drill file
; Format: 2.4 (00.0000)
M48
INCH
T01C0.0236
T02C0.0283
T03C0.0315
T04C0.0394
T05C0.0787
%
G05
G90
T01
X012380Y028000
X013630Y027500
X014610Y033750
X014610Y035750
X011110Y034250
T02
X006130Y037610
X007110Y037610
T03
X010790Y031050
X010790Y032050
X010790Y033050
T04
X001610Y021620
X001610Y022620
X001610Y023620
X001610Y024620
X001610Y025620
X001610Y026620
X001610Y027620
X001610Y028620
X001610Y031120
X001610Y032120
X001610Y033120
X001610Y034120
X001610Y035120
X001610Y036120
X001610Y037120
X001610Y038120
X013110Y037370
X014610Y037120
X014610Y038120
X013110Y035370
X013110Y033370
X014610Y032120
X014610Y031120
X013110Y031370
X014610Y028620
X014610Y027620
X012510Y025680
X012510Y023710
X014610Y022620
X014610Y021620
X006600Y023710
X006600Y024690
X006600Y025680
T05
X009550Y022330
X009550Y027050
M30
