%FSLAX34Y34*%
%MOMM*%
%LNSILK_BOTTOM*%
G71*
G01*
%ADD10C, 0.15*%
%ADD11C, 0.21*%
%ADD12C, 0.40*%
%LPD*%
G54D10*
X163115Y944686D02*
X163115Y909686D01*
X98115Y909686D01*
X98115Y944686D01*
X163115Y944686D01*
G54D11*
X98624Y953961D02*
X96457Y958294D01*
G54D11*
X105846Y957427D02*
X98624Y957427D01*
X97179Y956561D01*
X96457Y954827D01*
X96457Y953094D01*
X97179Y951361D01*
X98624Y950494D01*
X105846Y950494D01*
X107290Y951361D01*
X108012Y953094D01*
X108012Y954827D01*
X107290Y956561D01*
X105846Y957427D01*
G54D11*
X103679Y962338D02*
X108012Y966671D01*
X96457Y966671D01*
G54D10*
X239315Y944686D02*
X239315Y909686D01*
X174315Y909686D01*
X174315Y944686D01*
X239315Y944686D01*
G54D11*
X165853Y967125D02*
X163687Y971459D01*
G54D11*
X173076Y970592D02*
X165853Y970592D01*
X164409Y969725D01*
X163687Y967992D01*
X163687Y966259D01*
X164409Y964525D01*
X165853Y963659D01*
X173076Y963659D01*
X174520Y964525D01*
X175242Y966259D01*
X175242Y967992D01*
X174520Y969725D01*
X173076Y970592D01*
G54D11*
X163687Y982436D02*
X163687Y975503D01*
X164409Y975503D01*
X165853Y976369D01*
X170187Y981569D01*
X171631Y982436D01*
X173076Y982436D01*
X174520Y981569D01*
X175242Y979836D01*
X175242Y978103D01*
X174520Y976369D01*
X173076Y975503D01*
G54D10*
X88800Y964800D02*
X66800Y964800D01*
X66800Y914800D01*
X88800Y914800D01*
X88800Y964800D01*
G54D11*
X76244Y897100D02*
X74800Y899700D01*
X73355Y900567D01*
X70466Y900567D01*
G54D11*
X70466Y893634D02*
X82022Y893634D01*
X82022Y897967D01*
X81300Y899700D01*
X79855Y900567D01*
X78411Y900567D01*
X76966Y899700D01*
X76244Y897967D01*
X76244Y893634D01*
G54D11*
X70466Y911544D02*
X70466Y904610D01*
X71189Y904610D01*
X72633Y905477D01*
X76966Y910677D01*
X78411Y911544D01*
X79855Y911544D01*
X81300Y910677D01*
X82022Y908944D01*
X82022Y907210D01*
X81300Y905477D01*
X79855Y904610D01*
G54D10*
X293300Y935150D02*
X293300Y957150D01*
X243300Y957150D01*
X243300Y935150D01*
X293300Y935150D01*
G54D11*
X271533Y970628D02*
X268933Y969183D01*
X268067Y967739D01*
X268067Y964850D01*
G54D11*
X275000Y964850D02*
X275000Y976406D01*
X270667Y976406D01*
X268933Y975683D01*
X268067Y974239D01*
X268067Y972794D01*
X268933Y971350D01*
X270667Y970628D01*
X275000Y970628D01*
G54D11*
X258823Y964850D02*
X258823Y976406D01*
X264023Y969183D01*
X264023Y967739D01*
X257090Y967739D01*
G54D10*
X270000Y883050D02*
X292000Y883050D01*
X292000Y933050D01*
X270000Y933050D01*
X270000Y883050D01*
G54D10*
X263801Y903046D02*
X241801Y903046D01*
X241801Y853046D01*
X263801Y853046D01*
X263801Y903046D01*
G54D11*
X232196Y860746D02*
X230751Y863346D01*
X229307Y864212D01*
X226418Y864212D01*
G54D11*
X226418Y857279D02*
X237973Y857279D01*
X237973Y861612D01*
X237251Y863346D01*
X235807Y864212D01*
X234362Y864212D01*
X232918Y863346D01*
X232196Y861612D01*
X232196Y857279D01*
G54D11*
X235807Y868256D02*
X237251Y869123D01*
X237973Y870856D01*
X237973Y872589D01*
X237251Y874323D01*
X235807Y875189D01*
X234362Y875189D01*
X232918Y874323D01*
X232196Y872589D01*
X231473Y874323D01*
X230029Y875189D01*
X228584Y875189D01*
X227140Y874323D01*
X226418Y872589D01*
X226418Y870856D01*
X227140Y869123D01*
X228584Y868256D01*
G54D10*
X384641Y679916D02*
X384641Y657916D01*
X334641Y657916D01*
X334641Y679916D01*
X384641Y679916D01*
G54D10*
X384641Y654516D02*
X384641Y632516D01*
X334641Y632516D01*
X334641Y654516D01*
X384641Y654516D01*
G54D10*
X384641Y629116D02*
X384641Y607116D01*
X334641Y607116D01*
X334641Y629116D01*
X384641Y629116D01*
G54D12*
X12700Y755650D02*
X393700Y755650D01*
M02*
