%FSLAX34Y34*%
%MOMM*%
%LNCOPPER_TOP*%
G71*
G01*
%ADD10C, 2.00*%
%ADD11C, 2.00*%
%ADD12C, 1.80*%
%ADD13C, 1.50*%
%ADD14C, 1.00*%
%ADD15C, 1.80*%
%ADD16C, 3.00*%
%ADD17C, 0.50*%
%LPD*%
X371200Y968250D02*
G54D10*
D03*
X371200Y942850D02*
G54D10*
D03*
X41000Y968250D02*
G54D10*
D03*
X41000Y942850D02*
G54D10*
D03*
X41000Y917450D02*
G54D10*
D03*
X41000Y892050D02*
G54D10*
D03*
X41000Y866650D02*
G54D10*
D03*
X41000Y841250D02*
G54D10*
D03*
X371200Y815850D02*
G54D10*
D03*
X371200Y790450D02*
G54D10*
D03*
X41000Y815850D02*
G54D10*
D03*
X41000Y790450D02*
G54D10*
D03*
X274165Y788635D02*
G54D11*
D03*
X274165Y814035D02*
G54D11*
D03*
X274165Y839435D02*
G54D11*
D03*
X333100Y796800D02*
G54D10*
D03*
X333100Y847600D02*
G54D10*
D03*
X333100Y898400D02*
G54D10*
D03*
X333100Y949200D02*
G54D10*
D03*
X371200Y857250D02*
G54D12*
D03*
X371200Y908050D02*
G54D12*
D03*
X282300Y869950D02*
G54D13*
D03*
G54D14*
X371200Y815850D02*
X336400Y815850D01*
X282300Y869950D01*
X371200Y726950D02*
G54D10*
D03*
X371200Y701550D02*
G54D10*
D03*
X41000Y726950D02*
G54D10*
D03*
X41000Y701550D02*
G54D10*
D03*
X41000Y676150D02*
G54D10*
D03*
X41000Y650750D02*
G54D10*
D03*
X41000Y625350D02*
G54D10*
D03*
X41000Y599950D02*
G54D10*
D03*
X371200Y574550D02*
G54D10*
D03*
X371200Y549150D02*
G54D10*
D03*
X41000Y574550D02*
G54D10*
D03*
X41000Y549150D02*
G54D10*
D03*
X167678Y652161D02*
G54D15*
D03*
X167678Y627161D02*
G54D15*
D03*
X167678Y602161D02*
G54D15*
D03*
X317678Y652161D02*
G54D15*
D03*
X317678Y602161D02*
G54D15*
D03*
X242678Y687161D02*
G54D16*
D03*
X242678Y567161D02*
G54D16*
D03*
X346075Y698500D02*
G54D13*
D03*
X314325Y711200D02*
G54D13*
D03*
G54D17*
X314325Y711200D02*
X346075Y698500D01*
M02*
