%FSLAX34Y34*%
%MOMM*%
%LNSILK_TOP*%
G71*
G01*
%ADD10C, 0.15*%
%ADD11C, 0.13*%
%ADD12C, 0.16*%
%ADD13C, 0.18*%
%ADD14C, 0.17*%
%LPD*%
G54D10*
X213965Y769635D02*
X67865Y769635D01*
X67865Y858435D01*
X213965Y858435D01*
X213965Y769635D01*
G54D10*
X124965Y769635D02*
X124965Y858435D01*
G54D10*
G75*
G01X112264Y814035D02*
G03X112264Y814035I-12700J0D01*
G01*
G54D10*
X214165Y788635D02*
X263165Y788635D01*
G54D10*
X214165Y813635D02*
X263165Y813635D01*
G54D10*
X214165Y839635D02*
X263165Y839635D01*
G54D11*
X203865Y790135D02*
X203865Y793335D01*
X207165Y793335D01*
X208465Y792535D01*
X209165Y790935D01*
X209165Y789335D01*
X208465Y787735D01*
X207165Y786935D01*
X200465Y786935D01*
X199165Y787735D01*
X198465Y789335D01*
X198465Y790935D01*
X199165Y792535D01*
X200465Y793335D01*
G54D11*
X209165Y812335D02*
X198465Y812335D01*
X198465Y816335D01*
X199165Y817935D01*
X200465Y818735D01*
X207165Y818735D01*
X208465Y817935D01*
X209165Y816335D01*
X209165Y812335D01*
G54D11*
X207165Y837735D02*
X208465Y838535D01*
X209165Y840135D01*
X209165Y841735D01*
X208465Y843335D01*
X207165Y844135D01*
X205865Y844135D01*
X204465Y843335D01*
X203865Y841735D01*
X203865Y840135D01*
X203165Y838535D01*
X201865Y837735D01*
X200465Y837735D01*
X199165Y838535D01*
X198465Y840135D01*
X198465Y841735D01*
X199165Y843335D01*
X200465Y844135D01*
G54D12*
X91670Y864185D02*
X91670Y864718D01*
X92114Y864718D01*
X92114Y864185D01*
X91670Y864185D01*
X91670Y864718D01*
G54D10*
X383900Y846850D02*
X358500Y846850D01*
X358500Y918450D01*
X383900Y918450D01*
X383900Y846850D01*
G54D10*
X379200Y881050D02*
X363200Y881050D01*
G54D10*
X379200Y884250D02*
X363200Y884250D01*
G54D10*
X371200Y868350D02*
X371200Y881050D01*
G54D10*
X371200Y884250D02*
X371200Y896950D01*
G54D13*
X280019Y947675D02*
X288552Y947675D01*
G54D13*
X284286Y951231D02*
X284286Y944120D01*
G54D13*
X292463Y950342D02*
X297796Y955675D01*
X297796Y941453D01*
G54D13*
X310240Y941453D02*
X301707Y941453D01*
X301707Y942342D01*
X302774Y944120D01*
X309174Y949453D01*
X310240Y951231D01*
X310240Y953009D01*
X309174Y954786D01*
X307040Y955675D01*
X304907Y955675D01*
X302774Y954786D01*
X301707Y953009D01*
G54D13*
X292719Y908050D02*
X292719Y893828D01*
X300186Y893828D01*
G54D13*
X304097Y900050D02*
X312630Y900050D01*
G54D13*
X308364Y903606D02*
X308364Y896495D01*
G54D13*
X296986Y846964D02*
X301252Y846964D01*
X301252Y842520D01*
X300186Y840742D01*
X298052Y839853D01*
X295919Y839853D01*
X293786Y840742D01*
X292719Y842520D01*
X292719Y851409D01*
X293786Y853186D01*
X295919Y854075D01*
X298052Y854075D01*
X300186Y853186D01*
X301252Y851409D01*
G54D13*
X292719Y806450D02*
X292719Y792228D01*
X300186Y792228D01*
G54D13*
X304097Y798450D02*
X312630Y798450D01*
G54D10*
X152006Y942576D02*
X159606Y942576D01*
G54D10*
X155806Y946376D02*
X155806Y938776D01*
G54D10*
G75*
G01X199661Y955276D02*
G03X199661Y955276I-31450J0D01*
G01*
G54D14*
G75*
G01X285178Y627161D02*
G03X285178Y627161I-42500J0D01*
G01*
G54D14*
X257678Y687161D02*
X317678Y687161D01*
X317678Y662161D01*
G54D14*
X317678Y642161D02*
X317678Y612161D01*
G54D14*
X317678Y592161D02*
X317678Y567161D01*
X257678Y567161D01*
G54D14*
X227678Y567161D02*
X167678Y567161D01*
X167678Y592161D01*
G54D14*
X167678Y612161D02*
X167678Y617161D01*
G54D14*
X167678Y637161D02*
X167678Y642161D01*
G54D14*
X167678Y662161D02*
X167678Y687161D01*
X227678Y687161D01*
G54D14*
X302678Y687161D02*
X302678Y567161D01*
G54D14*
X182678Y567161D02*
X182678Y687161D01*
M02*
